<?xml version="1.0" encoding="utf-8"?>
<!-- Generator: Adobe Illustrator 26.5.1, SVG Export Plug-In . SVG Version: 6.00 Build 0)  -->
<svg version="1.1" id="Layer_1" xmlns="http://www.w3.org/2000/svg" xmlns:xlink="http://www.w3.org/1999/xlink" x="0px" y="0px"
	 viewBox="0 0 97.3 63.5" style="enable-background:new 0 0 97.3 63.5;" xml:space="preserve">
<g>
	<g>
		<path style="fill:#FFFFFF;" d="M91.1,44.2c-0.8-0.3-1.4-0.7-2.1-1.1c-0.8-0.4-1.6-0.9-2.4-1.2c-0.5-0.2-0.9-0.5-1.4-0.7
			c-0.9-0.4-1.8-0.7-2.7-0.8c-0.8-0.1-1.6,0-2.3,0.3c-0.5,0.2-0.9,0.6-1.3,1c-0.6,0.6-1.3,1.3-1.8,2c-0.6,0.8-1.3,1.5-2,2.2
			c-0.5,0.4-1.1,0.7-1.7,0.9c-0.9,0.3-1.8,0.2-2.7,0.1c-0.5,0-2.4-0.7-2.8-0.9c-0.3-0.1-5.3-2.8-6.4-3.3c-0.7-0.4-1.5-0.7-2.3-0.9
			c-0.6-0.2-1.2-0.4-1.8-0.5c-0.8-0.2-1.6-0.1-2.4-0.1c-0.6,0-1.1,0.2-1.6,0.6c-0.6,0.4-1.1,0.8-1.6,1.2c-0.8,0.7-1.5,1.4-2.2,2.1
			c-0.4,0.4-0.8,0.7-1.2,1.1c-0.7,0.6-1.4,1.1-2.3,1.5c-1,0.4-2,0.4-3.1,0.4c-0.5,0-0.9-0.2-1.4-0.3c-0.4-0.1-0.7-0.3-1.1-0.4
			c-0.7-0.3-1.4-0.6-2.1-1c-0.7-0.4-1.4-0.8-2.1-1.2c-0.4-0.2-0.7-0.4-1.1-0.6c-0.5-0.3-1.1-0.7-1.6-1c-0.5-0.2-0.9-0.6-1.4-0.8
			c-0.4-0.2-0.9-0.4-1.3-0.6c-0.5-0.2-1-0.4-1.6-0.5c-0.6-0.2-1.3-0.3-1.9-0.2c-0.7,0-1.4,0.2-2.1,0.4c-1,0.4-1.9,0.9-2.8,1.5
			c-0.3,0.2-0.6,0.5-1,0.7c-0.4,0.3-0.8,0.6-1.3,0.9c-0.4,0.3-0.9,0.6-1.3,1c-0.3,0.3-0.7,0.5-1,0.7c-0.3,0.2-0.6,0.4-0.9,0.6
			c-0.6,0.5-1.4,0.8-2.1,1.1c-0.5,0.2-1.1,0.4-1.6,0.5c-0.6,0.2-1.2,0.1-1.9,0.1c-0.2,0-0.3-0.1-0.4-0.3c-0.2-0.6-0.6-2.9-0.6-3.4
			c0-0.1,0.1-0.1,0.1-0.1c0.9-0.2,1.8-0.5,2.6-0.9c0.9-0.5,1.8-1.1,2.7-1.7c1.4-1,2.7-2.1,4.1-3c0.7-0.4,1.3-0.8,2.1-1.1
			c0.5-0.2,1.1-0.3,1.6-0.3c0.4,0,0.7,0,1.1,0c0.5,0,0.9,0.1,1.4,0.2c0.3,0,0.5,0.1,0.8,0.2c0.3,0.1,0.6,0.2,0.9,0.3
			c0.6,0.2,1.1,0.4,1.7,0.7c0.9,0.4,1.7,0.9,2.5,1.4c0.5,0.3,1,0.6,1.5,0.9c0.8,0.5,1.8,0.9,2.6,1.4c0.6,0.3,1.2,0.5,1.8,0.7
			c0.4,0.1,0.7,0.2,1.1,0.3c1,0.3,2,0.3,3.1,0.1c1.2-0.2,2.2-0.9,3.2-1.6c0.8-0.7,1.6-1.4,2.4-2.2c0.6-0.6,1.3-1.1,2-1.6
			c0.5-0.4,1.1-0.6,1.6-0.9c0.4-0.2,0.8-0.3,1.2-0.3c0.8,0,1.5-0.1,2.3,0.1c0.6,0.2,1.3,0.4,1.9,0.6c0.6,0.2,1.1,0.5,1.6,0.8
			c0.7,0.3,1.4,0.7,2,1.1c0.3,0.2,3.6,2.1,5.1,2.7c0.6,0.3,1.1,0.4,1.8,0.6c0.6,0.1,1.2,0.3,1.8,0.2c0.7-0.1,1.4-0.3,2.1-0.6
			c0.7-0.4,1.3-0.9,1.8-1.5c1-1,1.9-2,2.9-2.9c0.7-0.7,1.5-1.2,2.4-1.3c0.6-0.1,1.2-0.1,1.9,0c0.6,0.1,1.2,0.3,1.8,0.5
			c0.3,0.1,0.5,0.2,0.8,0.3c0.7,0.3,1.4,0.6,2,1c0.9,0.5,1.9,1,2.8,1.6c0.8,0.5,1.6,0.8,2.4,1.2C90.3,42.1,91,43.5,91.1,44.2z"/>
		<path style="fill:#FFFFFF;" d="M89.1,39.7C88,39.4,87,38.9,86,38.3c-0.5-0.2-1-0.5-1.4-0.8c-0.9-0.5-1.8-1-2.7-1.5
			c-0.8-0.4-1.5-0.8-2.4-1.1c-0.4-0.1-0.7-0.3-1.1-0.4c-1.2-0.4-2.4-0.2-3.5,0.3c-0.9,0.4-1.7,1-2.4,1.7c-0.7,0.7-1.4,1.5-2.2,2.1
			c-0.6,0.6-1.4,1.1-2.2,1.4c-0.7,0.3-1.3,0.3-2,0.3c-0.7,0-1.3-0.1-1.9-0.3c-0.3-0.1-0.7-0.2-1-0.4c-0.7-0.2-1.3-0.5-1.9-0.9
			c-0.6-0.3-1.2-0.6-1.7-1c-0.3-0.2-0.7-0.4-1.1-0.6c-0.7-0.4-1.4-0.8-2.1-1.2c-0.6-0.3-1.3-0.7-1.9-0.9c-0.4-0.1-0.7-0.3-1.1-0.4
			c-1.4-0.5-2.7-0.7-4.2-0.1c-1.1,0.5-2,1.1-2.9,1.8c-0.9,0.8-1.8,1.6-2.8,2.3c-0.6,0.5-1.3,1-2.1,1.3c-1,0.4-2,0.5-3,0.5
			c-0.3,0-0.7,0-1,0c-0.3-0.1-0.6-0.1-0.9-0.2c-0.3-0.1-0.6-0.2-0.9-0.3c-0.9-0.3-1.7-0.6-2.6-1c-0.7-0.4-1.4-0.8-2.1-1.2
			C29.9,37.6,29,37,28,36.5c-0.8-0.4-1.6-0.8-2.4-1.1c-0.7-0.3-1.5-0.5-2.3-0.6c-0.5-0.1-0.9-0.1-1.4-0.1c-0.9-0.1-1.8,0.3-2.6,0.6
			c-1.2,0.5-2.3,1.3-3.4,2.1c-0.6,0.4-1.2,0.8-1.8,1.3c-0.7,0.5-1.4,1-2.1,1.4c-0.5,0.3-2,1.1-2.2,1c-0.1-0.1-0.7-3.9-0.7-4.2
			c0-0.1,0-0.2,0.1-0.2c0.3-0.2,0.6-0.4,0.9-0.5c0.6-0.3,1.1-0.7,1.7-1.1c1-0.7,2-1.4,3.1-2.1c0.8-0.5,1.6-0.9,2.5-1.3
			c0.6-0.2,1.2-0.4,1.8-0.4c0.8,0,1.6,0,2.3,0.1c0.5,0.1,1,0.3,1.4,0.5c0.8,0.3,1.6,0.6,2.3,1c0.9,0.5,1.8,1,2.6,1.5
			c0.8,0.5,1.7,1,2.5,1.4c0.6,0.3,1.1,0.6,1.7,0.9c0.5,0.2,0.9,0.4,1.4,0.5c0.9,0.3,1.9,0.5,2.9,0.4c0.3,0,0.7-0.1,1-0.2
			c0.4-0.1,0.8-0.3,1.3-0.4c0.6-0.3,1.2-0.7,1.7-1c0.6-0.4,1.1-0.9,1.7-1.4c1-0.8,2-1.6,3.2-2.2c0.6-0.3,1.3-0.6,2-0.9
			c0.4-0.1,0.9-0.2,1.3-0.2c0.6,0,1.3,0.1,1.9,0.2c0.6,0.1,1.1,0.4,1.6,0.5c0.6,0.2,1,0.5,1.6,0.8c0.8,0.4,1.6,0.9,2.3,1.3
			c0.5,0.3,1,0.6,1.5,0.9c0.2,0.1,0.3,0.2,0.5,0.3c0.6,0.3,1.1,0.6,1.7,0.9c0.6,0.2,1.2,0.5,1.8,0.7c0.2,0.1,1,0.3,1.1,0.3
			c1.3,0.2,2.5,0.1,3.6-0.6c0.5-0.3,0.9-0.6,1.3-1c0.7-0.7,1.4-1.4,2.1-2.1c0.8-0.8,1.8-1.4,2.9-1.8c0.8-0.3,1.6-0.3,2.4-0.3
			c1.1,0,2,0.4,2.9,0.8c0.9,0.4,1.7,0.9,2.5,1.3c0.6,0.3,1.2,0.8,1.9,1.1c0.9,0.4,1.7,1,2.7,1.4c0.4,0.1,0.8,0.4,1.2,0.5
			c0.3,0.1,0.7,0.3,1,0.3c0.2,0,0.5,0.1,0.7,0.1C88.1,37.1,89,39.3,89.1,39.7z"/>
		<path style="fill:#FFFFFF;" d="M15.6,25.1c0.3,0,0.7-0.1,1.1,0c0.6,0.1,1.2,0.2,1.7,0.5c0.4,0.2,0.8,0.3,1.2,0.5
			c0.4,0.2,0.8,0.4,1.2,0.6c0.4,0.2,0.9,0.5,1.3,0.7c0.7,0.4,1.4,0.9,2.1,1.3c0.8,0.5,1.7,0.9,2.5,1.3c0.5,0.2,1,0.5,1.5,0.6
			c0.7,0.2,1.4,0.4,2.1,0.4c0.6,0,1.2,0,1.8-0.1c0.3-0.1,0.5-0.2,0.8-0.2c0.6-0.2,1.1-0.5,1.6-0.8c0.6-0.3,1.2-0.7,1.8-1.1
			c1-0.7,2-1.5,3.1-2.2c0.8-0.5,1.7-0.8,2.7-1c0.8-0.1,1.7-0.1,2.5-0.1c0.3,0,0.6,0.1,0.9,0.2c0.6,0.1,1.2,0.4,1.8,0.6
			c0.7,0.2,1.4,0.5,2,0.9c0.5,0.3,1,0.6,1.6,0.9c0.4,0.2,0.8,0.5,1.3,0.7c1,0.5,1.9,1.1,2.9,1.5c0.5,0.2,1.1,0.4,1.6,0.6
			c0.2,0.1,0.5,0.1,0.8,0.2c0.5,0.1,1,0.1,1.4,0.1c0.9,0,1.6-0.3,2.4-0.8c1.2-0.7,2.2-1.8,3.2-2.8c0.6-0.6,1.3-1.1,2-1.5
			c0.6-0.3,1.2-0.4,1.8-0.4c0.6,0,1.2,0.1,1.8,0.1c0.6,0.1,1.2,0.3,1.7,0.5c0.8,0.2,1.5,0.6,2.3,0.9c0.7,0.4,1.5,0.8,2.2,1.1
			c0.5,0.3,1,0.5,1.4,0.7c0.6,0.3,1.2,0.6,1.8,0.9c0.6,0.3,1.3,0.6,2,0.8c0.9,0.3,1.8,0.3,2.7,0.3c0.3,0,0.6-0.1,0.8-0.2
			c0.2-0.1,0.3-0.1,0.4,0.2c0.2,0.4,1.1,2.3,1.3,2.8c0,0.2,0,0.2-0.1,0.2c-0.5,0-0.9,0-1.3,0c-0.3,0-0.6-0.2-1-0.2
			c-0.4-0.1-0.9-0.3-1.3-0.5c-0.8-0.4-1.6-0.7-2.4-1.2c-0.9-0.5-1.9-1-2.8-1.5c-0.8-0.4-1.5-0.9-2.4-1.2c-1.4-0.6-2.9-1-4.4-0.8
			c-1.3,0.1-2.5,0.7-3.5,1.6c-0.6,0.5-1.1,1.1-1.7,1.6c-0.6,0.5-1.2,1-1.9,1.4c-0.5,0.3-1,0.5-1.6,0.7c-0.7,0.2-1.4,0.3-2,0.2
			c-1.2-0.2-2.3-0.6-3.4-1.2c-0.8-0.4-1.6-0.8-2.4-1.3c-0.8-0.5-1.6-0.9-2.4-1.4c-0.6-0.4-1.3-0.7-2-1c-0.5-0.2-0.9-0.4-1.4-0.6
			c-0.4-0.1-0.8-0.2-1.2-0.3c-0.9,0-1.8-0.1-2.7,0.1c-1.4,0.3-2.6,1-3.7,1.7c-0.6,0.4-1.1,0.9-1.7,1.4c-0.5,0.4-1,0.8-1.6,1
			c-0.3,0.1-0.5,0.4-0.9,0.5c-0.5,0.2-1,0.5-1.6,0.6c-1,0.3-2.1,0.3-3.2,0.3c-0.7,0-1.3-0.3-1.9-0.5c-1.2-0.4-2.3-1.1-3.4-1.7
			c-0.6-0.4-1.2-0.8-1.9-1.2c-0.8-0.4-1.5-0.9-2.3-1.3c-0.7-0.4-1.3-0.7-2-0.9c-1.2-0.4-2.5-0.8-3.9-0.5c-1.4,0.3-2.6,0.8-3.8,1.4
			c-0.6,0.3-1.2,0.7-1.8,1.1c-0.6,0.3-1.1,0.7-1.7,1.1c-0.2,0.1-0.5,0.3-0.7,0.5c-0.2,0.2-0.3,0.1-0.3-0.1c-0.1-0.7-0.7-3.8-0.7-4
			c0-0.1,1.9-1.3,2.5-1.6c0.7-0.3,1.4-0.7,2.2-0.9C13.3,25.3,14.3,25,15.6,25.1z"/>
		<path style="fill:#FFFFFF;" d="M44.3,23.2c-0.1-0.5-0.3-1-0.5-1.5c0-0.1-0.1-0.2-0.1-0.4c0.8,0.1,1.4,0.5,2,0.8
			c0.7,0.4,1.3,0.7,2,1.1c0.5,0.3,1,0.5,1.6,0.8c0.9,0.4,1.8,0.7,2.8,0.9c0.7,0.2,1.4,0.2,2.1,0.2c0.7,0,1.4-0.2,2-0.5
			c0.9-0.4,1.6-1.1,2.4-1.7c0.7-0.6,1.4-1.2,2.2-1.8c0.6-0.4,1.2-0.8,2-0.9c0.5-0.1,1-0.1,1.5-0.1c1,0,1.9,0.3,2.8,0.7
			c0.6,0.3,1.2,0.5,1.7,0.8c0.9,0.5,1.9,1,2.8,1.5c0.8,0.5,1.7,0.9,2.6,1.3c0.4,0.2,0.7,0.3,1.1,0.4c0.5,0.1,0.9,0.2,1.4,0.3
			c0.8,0.2,1.7,0.1,2.5,0c0.8-0.1,1.5-0.5,2.2-1c0.1-0.1,0.3-0.2,0.4-0.3c0.1-0.1,0.2,0,0.3,0.1c0.4,0.9,1.2,2.7,1.3,2.8
			c0.4,0.6,0.3,0.7-0.3,1c-0.7,0.3-1.5,0.4-2.3,0.4c-0.7,0-1.4-0.1-2-0.3c-0.4-0.1-0.8-0.3-1.1-0.4c-0.8-0.3-1.7-0.6-2.4-1
			c-0.5-0.3-1.1-0.6-1.6-0.9c-0.5-0.3-1-0.5-1.5-0.7c-0.6-0.3-1.2-0.6-1.8-0.9c-0.6-0.3-1.3-0.6-1.9-0.7c-0.8-0.2-1.6-0.3-2.4-0.3
			c-0.7,0-1.3,0.3-1.9,0.6c-0.7,0.4-2.7,2.3-3.2,2.6c-0.9,0.7-1.8,1.5-2.9,1.8c-0.8,0.3-1.6,0.3-2.5,0.2c-1.3-0.2-2.5-0.6-3.7-1.2
			c-0.5-0.2-1-0.4-1.5-0.7c-1.3-0.7-2.5-1.4-3.8-2.1c-0.5-0.2-0.9-0.5-1.4-0.6C44.7,23.5,44.5,23.4,44.3,23.2z"/>
		<path style="fill:#FFFFFF;" d="M43.1,19.4c-0.2-0.6-0.4-1.3-0.6-1.9c0.3,0,0.5,0.1,0.7,0.2c0.4,0.2,0.9,0.5,1.3,0.7
			c0.4,0.2,0.7,0.3,1.1,0.5c0.7,0.2,1.3,0.5,2,0.5c0.6,0,1.1,0,1.7,0c0.2,0,0.4-0.1,0.7-0.2c0.3-0.1,0.6-0.2,0.9-0.3
			c0.7-0.3,1.4-0.6,2.1-1c0.7-0.4,1.2-1,1.9-1.4c1-0.6,2-1.1,3.1-1.3c0.8-0.2,1.7-0.2,2.5-0.1c0.6,0,1.1,0.3,1.7,0.5
			c0.4,0.1,0.7,0.3,1.1,0.5c0.7,0.2,1.3,0.6,1.9,1c0.9,0.5,1.8,1,2.7,1.5c0.6,0.3,1.1,0.6,1.7,0.9c0.5,0.2,1,0.4,1.6,0.6
			c0.7,0.3,1.3,0.3,2,0.3c0.5,0,0.9-0.1,1.4-0.3c0.7-0.2,1.3-0.6,1.9-1c0.7-0.5,1.3-1,1.9-1.5c0.3-0.2,0.4-0.2,0.5,0.1
			c0.4,0.9,0.9,1.8,1.3,2.8c0.1,0.2,0.1,0.4-0.1,0.6c-0.5,0.4-0.8,0.9-1.3,1.2c-0.5,0.3-1,0.7-1.6,0.8c-0.7,0.2-1.4,0.2-2.1,0.1
			c-0.7-0.1-1.4-0.3-2-0.5c-0.8-0.3-1.6-0.6-2.4-1.1c-0.5-0.3-1.1-0.5-1.6-0.9c-0.3-0.2-0.6-0.3-0.9-0.4c-1-0.6-2-1.1-3.1-1.6
			c-0.8-0.4-1.7-0.7-2.6-0.8c-0.8-0.1-1.5,0-2.3,0.3c-0.8,0.3-1.5,0.7-2.2,1.2c-0.6,0.4-1.1,0.8-1.6,1.2c-0.7,0.6-1.4,1.2-2.3,1.5
			c-0.5,0.2-1,0.3-1.5,0.4c-0.7,0.1-1.3,0.1-1.9,0.1c-0.4,0-0.8-0.1-1.2-0.2c-0.5-0.1-1-0.2-1.5-0.4c-0.3-0.1-0.7-0.2-1-0.4
			c-0.7-0.3-1.3-0.7-1.9-1c-0.4-0.2-0.8-0.5-1.2-0.7C43.5,19.4,43.3,19.4,43.1,19.4z"/>
		<path style="fill:#FFFFFF;" d="M41.9,15.7c-0.3-0.8-0.6-1.6-0.8-2.4c0.6,0.2,1.3,0.4,1.9,0.5c0.6,0.1,1.2,0.1,1.8,0
			c0.7-0.1,1.3-0.4,1.9-0.7c0.5-0.3,0.9-0.5,1.3-0.8c1-0.7,2-1.4,3-2c0.9-0.5,1.9-0.7,2.9-0.7c0.4,0,0.8,0,1.1,0
			c0.4,0,0.8,0.1,1.2,0.3c0.5,0.1,0.9,0.3,1.4,0.4c0.5,0.2,1.8,0.8,2,0.9c0.6,0.4,1.3,0.7,2,1.1c0.8,0.5,1.7,0.9,2.5,1.3
			c0.6,0.3,1.1,0.5,1.7,0.7c0.5,0.2,0.9,0.3,1.4,0.4c0.8,0.2,1.5,0.2,2.3,0c0.8-0.3,1.5-0.7,2.2-1.2c0.6-0.5,1.1-1,1.7-1.5
			c0.6-0.5,1.2-0.9,1.9-1.2c0.1,0,0.2,0,0.2,0.1c0.2,0.5,1.2,2.6,1.2,2.7c0.1,0.2-0.2,0.3-0.3,0.4c-0.4,0.2-0.7,0.5-1,0.8
			c-0.4,0.4-0.8,0.8-1.3,1.1c-0.7,0.6-1.5,1.2-2.5,1.4c-0.7,0.2-1.4,0.1-2.2,0c-0.4-0.1-0.7-0.2-1.1-0.2c-0.4-0.1-0.8-0.3-1.2-0.4
			c-1.1-0.4-2.1-0.9-3.1-1.5c-0.7-0.4-1.5-0.8-2.2-1.2c-0.4-0.2-0.7-0.4-1.1-0.6c-0.7-0.3-1.5-0.6-2.3-0.8c-1.5-0.4-2.9-0.4-4.4,0.1
			c-0.7,0.3-1.4,0.6-2.1,1.1c-0.8,0.6-1.6,1.2-2.5,1.7c-0.5,0.3-1,0.6-1.5,0.7c-0.5,0.2-1,0.4-1.5,0.4c-0.2,0-0.5,0.1-0.8,0.1
			c-0.7,0-1.4-0.1-2-0.3c-0.6-0.2-1.1-0.4-1.6-0.6C42.4,15.7,42.1,15.7,41.9,15.7z"/>
		<path style="fill:#FFFFFF;" d="M40.4,11.1c-0.2-0.5-0.3-1-0.5-1.5c-0.1-0.4-0.3-0.9-0.4-1.3c0.7,0,1.3-0.1,2-0.3
			c0.2-0.1,0.4-0.2,0.6-0.3c0.4-0.2,0.8-0.4,1.2-0.6c0.6-0.4,1.1-0.7,1.7-1.1c0.8-0.5,1.6-1,2.4-1.4c0.9-0.4,1.8-0.5,2.8-0.4
			c0.3,0,0.5,0,0.8,0.1c0.5,0.1,1,0.3,1.5,0.4c0.9,0.3,1.7,0.7,2.5,1.1c0.4,0.2,0.8,0.3,1.1,0.6c0.5,0.3,1,0.6,1.5,0.8
			c0.7,0.3,1.4,0.8,2.1,1.1c0.4,0.1,0.8,0.3,1.2,0.4c0.4,0.2,0.9,0.3,1.4,0.4c1.2,0.2,2.3,0.3,3.5-0.1C66.4,8.8,67,8.4,67.6,8
			C68,7.6,68.5,7.3,69,7c0.5-0.3,1-0.7,1.5-0.9c0.9-0.4,1.8-0.5,2.8-0.4c0.1,0,0.2,0,0.2,0.1c0.2,0.4,0.8,1.7,0.9,2
			c0.1,0.3,0.1,0.3-0.2,0.4c-0.6,0.1-1.1,0.3-1.5,0.6c-0.9,0.5-1.6,1.2-2.4,1.8c-0.8,0.6-1.5,1.2-2.5,1.4c-0.3,0.1-0.5,0-0.8,0.1
			c-0.7,0.1-1.5,0-2.2-0.1c-0.4-0.1-0.8-0.2-1.2-0.4c-0.7-0.3-1.5-0.6-2.2-0.9c-0.9-0.4-1.7-0.9-2.6-1.3c-0.8-0.4-1.5-0.8-2.3-1.2
			c-0.8-0.3-1.6-0.7-2.4-0.9C53.3,7.1,52.7,7,52,7c-1.2-0.1-2.2,0.3-3.2,0.8c-0.9,0.5-1.6,1.1-2.5,1.6c-0.6,0.3-1.1,0.8-1.7,1
			c-0.6,0.2-1.1,0.5-1.7,0.6c-0.7,0.1-1.4,0.1-2,0C40.7,11,40.6,11.1,40.4,11.1z"/>
		<path style="fill:#FFFFFF;" d="M43.8,21.7c0-0.1-0.1-0.2-0.1-0.4c-0.2-0.6-0.5-1.3-0.6-1.9c-0.2-0.6-0.4-1.3-0.6-1.9
			c-0.2-0.6-0.4-1.2-0.6-1.8c-0.3-0.8-0.6-1.6-0.8-2.4c-0.3-0.7-0.5-1.5-0.7-2.2c-0.2-0.5-0.3-1-0.5-1.5c-0.1-0.4-0.3-0.9-0.4-1.3
			c-0.3-0.1-0.7-0.1-1-0.1c-1.9-0.3-3.6-1.1-5.2-2c-1-0.5-1.9-1.1-2.9-1.6c-1.3-0.7-2.6-1.2-4-1.5C25.3,2.9,24.1,2.8,23,3
			c-0.9,0.2-1.8,0.6-2.6,1c-1.3,0.6-2.6,1.4-3.9,2c-1,0.5-2.1,0.9-3.3,1C12.1,7.1,11,6.9,9.9,6.6c-2.3-0.7-4.3-2-6.4-3.1
			C3.4,3.4,3.2,3.2,3.1,3.3c-0.1,0.1,0,0.3,0,0.5C3.6,5.7,4,7.6,4.4,9.6c0.3,1.6,0.6,3.3,0.9,4.9c0.3,1.5,0.5,3.1,0.8,4.6
			c0.2,1.4,0.5,2.9,0.7,4.3c0,0.2,0.1,0.2,0.3,0.1c0.6-0.3,1.2-0.6,1.9-0.9c1.8-0.6,3.6-0.8,5.5-0.5c0.8,0.1,1.6,0.4,2.3,0.7
			c1.4,0.6,2.6,1.4,3.9,2.1c1.3,0.8,2.5,1.5,3.9,2.1c1.1,0.5,2.2,0.9,3.5,0.9c0.7,0,1.4,0,2-0.2c1-0.3,1.8-0.7,2.7-1.2
			c1-0.6,2-1.3,2.9-2c1.3-1,2.7-1.6,4.2-1.9c0.8-0.1,1.7-0.1,2.5,0.1c0.6,0.1,1.2,0.3,1.8,0.5C44.2,22.7,44,22.2,43.8,21.7z
			 M38.8,12.3c0,0,0.2,0.1,0,0.2c-0.1,0.1-0.1,0.1,0,0.2c0,0,0.1,0.1,0,0.1c0,0-0.1,0-0.1,0c-0.1-0.1-0.1-0.1-0.2-0.2
			c-0.2-0.3-0.6-0.3-0.9-0.4c-0.1,0-0.2-0.1-0.1-0.2c0.1-0.1,0-0.2-0.1-0.4c0.2,0,0.3,0,0.4-0.1c0-0.1,0.1-0.1,0.2,0
			c0,0,0.1,0.1,0.1,0.1C38.3,12,38.5,12.2,38.8,12.3z M36.5,9c0,0,0.1,0,0.1,0c0.1,0.1,0.2,0.2,0.3,0c0.1-0.1,0.3,0,0.3,0.1
			c0.1,0.4,0.4,0.4,0.7,0.5c0.1,0,0.2,0,0.2,0.1c-0.1,0.1-0.4,0-0.3,0.3c0,0.1-0.2,0-0.2,0c-0.2-0.2-0.5-0.2-0.8-0.3
			c-0.1,0-0.1,0-0.2-0.1C36.7,9.3,36.7,9.2,36.5,9C36.5,9,36.5,9,36.5,9z M36.3,14.2c0.1,0.2,0.3,0.3,0.5,0.3c0.1,0,0.2,0,0.3,0.2
			c0,0.1-0.1,0.1-0.2,0.1c-0.1,0.1,0,0.1,0,0.2c0,0.1,0.1,0.1,0.1,0.2c-0.1,0.1-0.1,0-0.2,0c0,0-0.1,0-0.1-0.1
			c-0.2-0.2-0.4-0.2-0.6-0.1c-0.1,0.1-0.2,0.1-0.3,0c-0.1-0.1,0-0.2,0-0.2c0.1-0.4-0.2-0.4-0.4-0.6c-0.1,0-0.2,0-0.2-0.2
			c0.2,0,0.4,0,0.4,0.1c0.3,0.2,0.3,0,0.3-0.2c0.1-0.2,0.1-0.2,0.3,0C36.2,14.1,36.2,14.1,36.3,14.2z M35.1,11
			c0.2,0.3,0.3,0.5,0.7,0.5c0.1,0,0.2,0.1,0.2,0.1c0,0.1-0.3,0-0.2,0.3c0.1,0.2,0.2,0.3,0.3,0.5c-0.1,0-0.1-0.1-0.2-0.1
			c-0.3-0.2-0.6-0.4-0.8-0.1c0,0-0.1,0.1-0.2,0c-0.1,0,0-0.1,0-0.2c0-0.4,0-0.4-0.4-0.7c-0.1,0-0.2-0.1-0.1-0.2c0-0.1,0.1,0,0.2,0
			c0.5,0.1,0.4,0.1,0.5-0.3c0,0,0-0.1,0-0.1C35,10.8,35.1,10.9,35.1,11C35.1,10.9,35.1,10.9,35.1,11z M33.8,8.7
			c0.4,0.1,0.3,0.1,0.4-0.3c0,0,0-0.1,0-0.1c0,0,0.1,0,0.1,0.1c0,0,0,0,0,0.1c0.1,0.2,0.3,0.4,0.5,0.4C34.9,8.9,35,9,35.1,9
			c0,0.1-0.3,0-0.2,0.2c0.1,0.1,0.1,0.2,0.2,0.4c-0.1,0-0.1-0.1-0.2-0.1c-0.2-0.2-0.5-0.3-0.6-0.1c0,0-0.1,0.1-0.1,0
			c0,0,0-0.1,0-0.1c0-0.3,0-0.4-0.4-0.6c-0.1,0-0.1,0-0.1-0.1C33.7,8.6,33.7,8.7,33.8,8.7z M32.3,9c0.1,0,0.1,0,0.1,0.1
			c0,0.1,0,0.1-0.1,0.1c-0.3,0-0.2,0.1-0.1,0.3c0,0.1,0.2,0.1,0.2,0.3c-0.2,0.1-0.3-0.1-0.4-0.2c-0.2-0.2-0.5-0.2-0.7-0.1
			c-0.2,0.1-0.3,0.1-0.2-0.2c0-0.2,0-0.4-0.2-0.4c-0.1,0-0.2-0.1-0.3-0.2c0.6,0.1,0.6,0.1,0.8-0.2c0.1,0,0.2,0.1,0.2,0.2
			C31.7,8.7,32,8.9,32.3,9z M30.4,6.3c0.4,0.1,0.3,0.1,0.4-0.3c0,0,0-0.1,0-0.1c0,0,0.1,0,0.1,0.1c0,0,0,0,0,0.1
			c0.1,0.2,0.3,0.4,0.5,0.4c0.1,0,0.1,0.1,0.2,0.1c0,0.1-0.3,0-0.2,0.2c0.1,0.1,0.1,0.2,0.2,0.4c-0.1,0-0.1-0.1-0.2-0.1
			C31.2,7,31,6.9,30.8,7.1c0,0-0.1,0.1-0.1,0c0,0,0-0.1,0-0.1c0-0.3,0-0.4-0.4-0.6c-0.1,0-0.1,0-0.1-0.1C30.2,6.3,30.3,6.3,30.4,6.3
			z M30.2,14.3c0.1,0,0.1,0,0.1,0c0.1,0.1,0.1,0.3,0.4,0.4c0.2,0,0.3-0.1,0.5-0.1c0.1,0,0.1-0.1,0.2,0c0,0.1-0.1,0.3-0.2,0.3
			c-0.3,0.3-0.1,0.5,0,0.8c0,0.1,0.1,0.1,0.1,0.2c0,0,0.1,0.1,0,0.1c0,0-0.1,0-0.1,0c-0.1,0-0.3-0.1-0.4-0.1c-0.2,0-0.3,0.1-0.3,0.2
			c0,0.2-0.2,0.3-0.2,0.4c0,0.1-0.1,0.1-0.1,0.1c-0.1,0-0.1-0.1-0.1-0.1c0-0.1,0-0.1,0-0.2c0-0.5,0-0.5-0.5-0.6
			c-0.1,0-0.2,0-0.2-0.1c0-0.1,0.1-0.1,0.1-0.1c0.3-0.1,0.6-0.2,0.6-0.6c0-0.1,0-0.2,0-0.4C30.1,14.4,30.1,14.4,30.2,14.3z
			 M29.4,10.3c0.2,0.2,0.5-0.1,0.7,0c0,0,0,0.1-0.1,0.1c-0.3,0.4-0.3,0.4-0.1,0.8c0,0,0.1,0.1,0,0.1c0,0.1-0.1,0-0.1,0
			c-0.4-0.2-0.7-0.1-0.8,0.4c0,0.1-0.1,0.1-0.1,0.1c-0.1,0,0-0.1,0-0.1c0,0,0-0.1,0-0.1c0-0.5,0-0.5-0.5-0.7c-0.1,0-0.1,0-0.2-0.1
			c0-0.1,0.1-0.1,0.1-0.1c0.6-0.2,0.6-0.2,0.6-0.9c0,0,0,0,0-0.1C29.1,9.9,29.2,10.1,29.4,10.3z M27.5,6.5c0.2,0,0.4-0.1,0.3-0.3
			c0-0.1,0-0.1,0.1-0.2C28,6,28,6.1,28,6.2c0.2,0.3,0.4,0.5,0.7,0.5c0.1,0,0.1,0,0.2,0.1c0,0.1-0.1,0.1-0.1,0.1
			c-0.2,0.1-0.2,0.2-0.1,0.3c0.1,0.1,0.1,0.1,0.1,0.2c-0.1,0.1-0.1,0-0.2,0c-0.4-0.3-0.6-0.1-0.9,0.2c0,0-0.1,0.1-0.1,0.1
			c-0.1-0.1,0-0.2,0.1-0.3c0.1-0.2,0-0.5-0.2-0.6c-0.1,0-0.2-0.1-0.2-0.2C27.3,6.5,27.4,6.6,27.5,6.5z M26.4,8.8
			c0.1,0,0.2-0.1,0.3,0c0.1,0.1,0,0.2-0.1,0.3c-0.2,0.3-0.2,0.4,0,0.7c0,0.1,0.1,0.1,0.1,0.2c0,0.1,0,0.2-0.1,0.1c0,0-0.1,0-0.1,0
			c-0.4-0.1-0.6,0.1-0.8,0.4c0,0.1-0.1,0.2-0.2,0.3c-0.1-0.2,0-0.4,0-0.6c0-0.2,0-0.3-0.3-0.4c-0.2,0-0.4,0-0.4-0.1
			c0-0.2,0.2-0.2,0.4-0.3c0.3-0.1,0.4-0.3,0.4-0.6c0-0.1,0-0.2,0-0.4c0.1,0.1,0.3,0.1,0.3,0.2C26,8.9,26.1,8.9,26.4,8.8z M25.9,19.1
			c0.1,0.1,0.1,0.2,0.2,0.3c-0.3-0.1-0.5-0.1-0.8-0.2c-0.1,0-0.2,0-0.2,0.1c-0.1,0.2-0.3,0.3-0.4,0.5c0,0-0.1,0.1-0.1,0.1
			c-0.1,0-0.1-0.1,0-0.1c0.1-0.2,0-0.4,0.1-0.6c0-0.2-0.2-0.2-0.3-0.3c-0.1,0-0.2,0-0.2-0.1c-0.1-0.1-0.1-0.2,0-0.3
			c0.5-0.1,0.6-0.5,0.6-0.9c0-0.1,0-0.1,0-0.2c0.2,0.1,0.3,0.3,0.4,0.5c0.1,0.2,0.2,0.2,0.3,0.1c0.1-0.1,0.3-0.3,0.5-0.2
			c0.2,0.1-0.1,0.3-0.2,0.4C25.5,18.7,25.5,18.7,25.9,19.1z M23.8,4.8c0.4-0.1,0.6-0.4,0.6-0.8c0.1,0,0.1,0,0.2,0.1
			c0.2,0.4,0.4,0.5,0.9,0.4c0.1,0,0.1-0.1,0.1,0c0,0.1,0,0.1-0.1,0.1c0,0-0.1,0.1-0.1,0.1c-0.2,0.1-0.2,0.2-0.1,0.4
			c0.1,0.1,0.2,0.2,0.1,0.3c-0.1,0.1-0.2,0-0.3,0c-0.3-0.2-0.5,0.1-0.6,0.2C24.4,5.8,24.4,6,24.3,6c-0.1-0.1,0-0.2,0-0.3
			c0-0.4,0-0.4-0.4-0.6c-0.1,0-0.3,0-0.2-0.1C23.6,4.8,23.7,4.8,23.8,4.8z M23.6,12.5c0.1,0.1,0.2,0.2,0.2,0.3
			c0.1,0.3,0.2,0.2,0.4,0.1c0,0,0,0,0,0c0.2,0,0.3-0.3,0.5-0.2c-0.1,0.2-0.1,0.4-0.2,0.5c-0.3,0.3-0.2,0.5,0,0.8
			c0.1,0.1,0.2,0.2,0.2,0.4c-0.2,0.1-0.4,0-0.6-0.1c-0.2,0-0.2,0-0.3,0.1c-0.1,0.2-0.2,0.4-0.3,0.5c0,0-0.1,0.1-0.1,0.1
			c-0.1,0,0-0.1,0-0.1c0-0.1,0-0.3,0-0.4c0.1-0.2,0-0.3-0.3-0.4c-0.2,0-0.4,0-0.4-0.2c0-0.2,0.2-0.1,0.3-0.2
			c0.1-0.1,0.2-0.1,0.3-0.2c0.1-0.1,0.2-0.1,0.2-0.3c0-0.2,0-0.4,0-0.6c0,0,0-0.1,0-0.1C23.6,12.4,23.6,12.5,23.6,12.5z M21.5,8.8
			c0.7-0.2,0.7-0.7,0.7-1.3c0,0,0-0.1,0-0.2c0.1,0.2,0.3,0.3,0.3,0.5C22.7,8,22.9,8,23,7.9c0.1-0.1,0.3-0.2,0.4-0.2
			c0,0.2,0,0.3-0.1,0.4c-0.2,0.3-0.3,0.6,0,0.9c0.1,0.1,0.2,0.2,0.1,0.3c-0.1,0.1-0.2,0-0.3,0c-0.4,0-0.4-0.1-0.7,0.4
			c-0.1,0.1-0.1,0.2-0.2,0.4c-0.1-0.3-0.1-0.5,0-0.8c0.1-0.2-0.1-0.2-0.2-0.3c-0.1,0-0.3,0-0.4-0.1c0,0-0.1,0-0.1-0.1
			C21.5,8.9,21.5,8.8,21.5,8.8z M20.4,11.8c0.1,0.2,0.2,0.3,0.4,0.1c0.1-0.1,0.3-0.1,0.4-0.2c0,0,0.1-0.1,0.2,0c0.1,0.1,0,0.1,0,0.2
			c-0.1,0.1-0.1,0.2-0.1,0.2c-0.3,0.4-0.2,0.6,0.1,0.9c0.1,0.1,0.2,0.1,0.1,0.2c-0.1,0.1-0.2,0-0.2-0.1c-0.1,0-0.3-0.1-0.4-0.2
			c-0.1-0.1-0.2,0-0.3,0.1c-0.1,0.1-0.2,0.3-0.3,0.4c0,0.1-0.1,0.1-0.2,0.1c-0.1,0-0.1-0.1-0.1-0.2c0,0,0-0.1,0-0.1
			c0.1-0.5,0.1-0.5-0.5-0.7c-0.1,0-0.1,0-0.1-0.1c0-0.1,0-0.1,0.1-0.1c0.1,0,0.2-0.1,0.2-0.1c0.4,0,0.5-0.3,0.5-0.6
			c0-0.1,0-0.3,0.2-0.3C20.3,11.5,20.4,11.7,20.4,11.8z M18.2,7.7c0.6-0.2,0.6-0.4,0.6-1c0-0.1,0-0.2,0-0.2c0,0,0-0.1,0.1-0.1
			c0.1,0,0.1,0,0.1,0.1c0.1,0.1,0.1,0.2,0.2,0.3C19.4,7,19.5,7,19.8,6.8c0.1-0.1,0.2-0.2,0.5-0.2C20,6.8,20,7.2,19.7,7.4
			c-0.1,0.1-0.1,0.1,0,0.2c0.1,0.1,0.2,0.3,0.3,0.4C20,8,20.1,8.1,20,8.2c-0.1,0.1-0.2,0.1-0.3,0.1c-0.6-0.2-0.5,0-0.8,0.4
			c0,0.1,0,0.2-0.1,0.1c-0.1,0-0.1-0.1-0.1-0.2c0-0.2,0-0.3,0-0.5c0-0.2-0.1-0.3-0.3-0.2c-0.1,0-0.1,0-0.2,0c-0.1,0-0.2,0-0.2-0.1
			C18,7.7,18.2,7.7,18.2,7.7z M16.1,11c0.3,0,0.4-0.1,0.4-0.5c0-0.1,0-0.2,0.1-0.3c0.1-0.1,0.1,0.1,0.2,0.2c0,0,0,0.1,0.1,0.1
			c0.2,0.4,0.2,0.4,0.6,0.3c0.1,0,0.2,0,0.3,0.1c0.1,0.1-0.1,0.2-0.1,0.2c-0.1,0.1-0.2,0.1-0.2,0.2c-0.1,0.1,0,0.3,0.1,0.3
			c0.1,0,0.2,0.2,0.1,0.3c-0.1,0.1-0.2,0-0.3,0c-0.3-0.2-0.6-0.2-0.8,0.1c-0.1,0.1-0.2,0.2-0.3,0.2c-0.1-0.1,0-0.2,0-0.3
			c0-0.2,0.1-0.5-0.3-0.5c-0.2,0-0.3-0.2-0.5-0.3C15.8,10.9,16,10.9,16.1,11z M12.3,8.7C12.3,8.7,12.3,8.7,12.3,8.7
			c0.5,0.1,0.5,0.1,0.6-0.3c0-0.1,0-0.2,0.1-0.2c0.1,0,0.1,0.1,0.1,0.2c0.3,0.5,0.4,0.6,1,0.5c0.1,0,0.1-0.1,0.2,0
			C14.4,9,14.3,9,14.2,9C14,9,14,9.2,13.8,9.3c-0.2,0.1,0.1,0.2,0.1,0.3c0,0.1,0.2,0.1,0.1,0.2c-0.1,0.1-0.1,0-0.2-0.1
			c-0.3-0.2-0.5-0.2-0.9-0.1c-0.1,0-0.1,0-0.1,0c-0.2,0-0.2-0.1-0.2-0.2c0-0.1,0.1-0.2,0.1-0.3c-0.1-0.1-0.3-0.3-0.4-0.3
			c-0.1,0-0.1,0-0.1-0.1C12.1,8.7,12.2,8.7,12.3,8.7z M10,9.1c0-0.1,0.1-0.1,0.1,0c0.2,0.5,0.7,0.7,1.2,0.9c-0.5,0-0.5,0-0.3,0.4
			c-0.4-0.4-0.9-0.6-1.4-0.7c0.2-0.3,0.2-0.3-0.1-0.6C9.8,9.3,9.9,9.3,10,9.1z M5.9,6.5c-0.1,0-0.1-0.1-0.1-0.2C6,6.2,6,6.1,5.8,6
			C5.8,6,5.7,5.9,5.8,5.9c0-0.1,0.1,0,0.1,0C6,6,6.1,6,6.2,5.9c0.1-0.1,0.2,0,0.3,0.1C6.7,6.3,7,6.6,7.4,6.8c-0.3,0-0.3,0-0.2,0.3
			C6.8,6.7,6.4,6.6,5.9,6.5z M6.8,9.3c-0.3,0-0.3,0-0.2-0.3c0-0.1,0.1-0.3-0.1-0.3c-0.1,0-0.1-0.1-0.1-0.2c0-0.1,0.1-0.1,0.2,0
			c0.1,0.2,0.3,0.2,0.5,0.2c0.1,0,0.2,0,0.2,0.1C7.4,9.1,7.8,9.1,8,9.4c-0.2,0-0.2,0.2-0.1,0.3c-0.2,0-0.4-0.1-0.5-0.2
			C7.3,9.3,7.1,9.2,6.8,9.3z M7.3,12.2c0.1-0.2,0.1-0.4-0.1-0.6c-0.1,0-0.1-0.1-0.1-0.1c0-0.1,0.1-0.1,0.1,0c0.2,0.1,0.3,0,0.4-0.2
			c0-0.2,0.1-0.1,0.2,0C8,11.5,8,11.8,8.3,11.9c0.2,0.1,0.2,0.2,0.4,0.2c0,0,0.1,0,0.1,0.1c0,0,0,0.1,0,0.1
			c-0.3,0.1-0.3,0.2-0.1,0.3c0,0,0,0.1,0,0.1c0,0,0,0.1,0,0.1c0,0-0.1,0-0.1,0c-0.1-0.1-0.2-0.1-0.3-0.2c-0.3-0.3-0.6-0.2-0.9-0.1
			c-0.1,0-0.1,0.1-0.2,0C7.2,12.3,7.3,12.3,7.3,12.2z M8,16.3c0-0.1,0-0.1,0-0.2c0.1-0.6,0.1-0.6-0.5-0.9c-0.1,0-0.2-0.1-0.2-0.2
			c0.2,0,0.4,0,0.6,0c0.4,0,0.4,0,0.5-0.4c0-0.1,0-0.2,0.1-0.2c0.1,0,0.1,0.1,0.1,0.1c0.1,0.1,0.1,0.2,0.2,0.3
			c0.1,0.2,0.2,0.3,0.4,0.3c0.2,0,0.4,0.2,0.6,0.2c0,0,0.1,0,0.1,0.1c0,0,0,0.1-0.1,0.1c0,0-0.1,0-0.1,0c-0.4,0-0.4,0.1-0.2,0.4
			c0,0.1,0.2,0.1,0.1,0.2c-0.1,0.1-0.2,0-0.2-0.1c-0.4-0.2-0.7-0.2-1.1,0.1C8.1,16.2,8.1,16.2,8,16.3z M10.6,19.4
			c-0.1,0.1-0.1,0.1-0.2,0.2c-0.3,0.1-0.3,0.3-0.1,0.5c0.1,0.1,0.3,0.3,0.2,0.4c-0.1,0.1-0.3,0-0.5-0.1c-0.3-0.2-0.5,0-0.7,0.2
			c-0.1,0.1-0.2,0.2-0.3,0.4c-0.1,0-0.1-0.1-0.1-0.2c0-0.2,0.1-0.4,0.1-0.6C9,20,9,20,8.8,19.9c-0.2,0-0.3-0.1-0.5-0.2
			c0,0-0.1,0-0.1-0.1c0,0,0.1-0.1,0.1-0.1c0.2,0,0.4-0.1,0.6-0.1c0.2,0,0.2-0.1,0.2-0.3c0-0.2,0-0.5,0.2-0.6c0.2,0,0.2,0.3,0.3,0.5
			c0.1,0.2,0.2,0.2,0.4,0.2c0.2,0,0.3,0,0.5,0c0,0,0.1,0,0.1,0C10.7,19.4,10.6,19.4,10.6,19.4z M10.6,12.5c-0.2,0-0.4,0-0.2-0.3
			c0.1-0.1-0.1-0.2-0.1-0.3c0.1-0.1,0.2,0.1,0.3,0c0.1,0,0.1-0.1,0.2-0.2c0.3,0.4,0.5,0.8,1.1,1c-0.2,0.1-0.4,0.1-0.3,0.3
			c-0.3-0.1-0.5-0.4-0.8-0.5C10.8,12.5,10.7,12.5,10.6,12.5z M11.1,15c0.2-0.2-0.1-0.3-0.2-0.5c0.2,0.1,0.4,0.2,0.6,0
			c0.1-0.1,0.1,0,0.2,0.1c0.2,0.3,0.3,0.5,0.7,0.6c0.1,0,0.2,0.1,0.1,0.2c-0.1,0.1,0,0.2,0,0.4c-0.1-0.1-0.1-0.1-0.2-0.1
			c-0.3-0.3-0.6-0.4-1-0.4C11,15.2,11,15.2,11.1,15z M13,18.6c-0.3-0.1-0.5-0.3-0.8-0.3c-0.1,0-0.1,0-0.2,0c-0.2,0-0.3,0-0.3-0.2
			c0.1-0.3-0.1-0.4-0.3-0.6c-0.1,0-0.2-0.1-0.1-0.2c0.1-0.1,0.1,0,0.2,0.1c0.2,0.1,0.4,0.1,0.5-0.1c0-0.1,0.1-0.2,0.2-0.1
			c0.2,0.5,0.6,0.8,1.1,0.9c0,0,0,0,0,0C13.1,18.3,13,18.3,13,18.6z M13.4,12.6c0.1-0.2-0.2-0.3-0.3-0.4C13.1,12.1,13,12.2,13,12
			c0.2,0.1,0.3,0.2,0.5,0.2c0.1,0,0.2,0,0.3-0.2c0-0.1,0-0.2,0.1-0.2c0.1,0,0.1,0.1,0.1,0.1c0.2,0.4,0.5,0.6,0.9,0.6
			c0.1,0,0.2,0,0.2,0.1c0,0.1-0.1,0.1-0.2,0.1c-0.3,0-0.3,0.2-0.1,0.3c0.1,0.1,0.1,0.1,0.1,0.3c-0.2,0-0.3-0.2-0.5-0.3
			c-0.2-0.2-0.5-0.3-0.8-0.3C13.5,12.9,13.4,12.9,13.4,12.6z M14.4,15.8c-0.1,0-0.4,0-0.2-0.3c0.1-0.1,0-0.3-0.2-0.3
			c-0.1,0-0.2-0.1-0.3-0.2c0,0,0,0,0-0.1c0.1,0.1,0.2,0.1,0.3,0.2c0.1,0.1,0.3,0.2,0.4-0.1c0-0.1,0.1-0.1,0.2,0
			c0.1,0.1,0.2,0.2,0.2,0.3c0.1,0.3,0.4,0.4,0.7,0.5c0,0,0.1,0,0.1,0.1c0,0,0.1,0,0.1,0.1c0,0.1-0.1,0.1-0.1,0
			c-0.1-0.1-0.2-0.1-0.2,0c-0.1,0.1,0,0.2,0.1,0.2c0,0,0.1,0.1,0,0.1c-0.1,0.1-0.1,0-0.1,0C15.2,16.1,14.9,15.9,14.4,15.8z
			 M14.9,18.4c0.3-0.3-0.1-0.4-0.2-0.6c0,0,0,0,0,0c0,0,0,0,0,0c0.1,0.1,0.2,0.1,0.3,0.2c0.1,0.1,0.2,0.1,0.2-0.1
			c0-0.1,0.1-0.2,0.2,0c0.3,0.4,0.6,0.8,1.1,1c0,0,0,0,0,0.1c-0.1,0-0.3-0.1-0.3,0.2c0,0.1-0.1,0.1-0.1,0c-0.3-0.3-0.7-0.4-1.1-0.6
			C14.9,18.5,14.8,18.5,14.9,18.4z M17.1,21.7c-0.4-0.1-0.1,0.2-0.1,0.3c-0.1,0-0.1-0.1-0.2-0.1c-0.3-0.3-0.6-0.4-1-0.4
			c-0.2,0-0.3,0-0.2-0.3c0.1-0.1,0-0.2-0.1-0.3c-0.1-0.1-0.2-0.1-0.2-0.2c0.1,0,0.2,0.1,0.3,0.1c0.1,0.1,0.2,0.1,0.3-0.1
			c0.1-0.1,0.2-0.1,0.2,0c0.2,0.4,0.5,0.7,0.9,0.8C17.2,21.5,17.2,21.6,17.1,21.7C17.2,21.7,17.2,21.7,17.1,21.7z M17.2,15.8
			c-0.1-0.1,0-0.2,0-0.3c0.1-0.2,0-0.3-0.2-0.4c-0.1-0.1-0.3-0.1-0.3-0.3c0-0.1,0.2,0,0.4,0c0.2,0,0.3,0,0.3-0.2
			c0-0.1,0-0.3,0.1-0.3c0.1,0,0.2,0.1,0.2,0.2c0.2,0.4,0.5,0.5,0.9,0.4c0.1,0,0.1,0,0.2,0c0,0.1-0.2,0.1-0.2,0.2
			c0,0.1-0.4,0.1-0.2,0.3c0.1,0.1,0,0.3,0.2,0.4c0,0,0.1,0.1,0,0.1c0,0-0.1,0-0.1,0c0,0-0.1-0.1-0.1-0.1c-0.3-0.2-0.6-0.4-1-0.2
			C17.4,15.8,17.3,15.9,17.2,15.8z M17.5,18.1c0.2,0,0.3,0.1,0.5,0.2c0.2,0.1,0.3,0,0.3-0.2c0-0.1,0.2-0.2,0.2-0.1
			c0.2,0.5,0.7,0.7,1.2,0.8c0,0,0.1,0,0.1,0.1C19.6,19,19.5,19,19.2,19c0,0.2,0.1,0.3,0.2,0.4c0,0,0,0.1,0,0.1c0,0.1-0.1,0-0.1,0
			c0,0,0,0,0,0c-0.3-0.4-0.8-0.4-1.4-0.5C18.4,18.5,17.7,18.4,17.5,18.1z M20.3,22.2c-0.2,0-0.2,0.1-0.1,0.2c0,0.1,0,0.1,0.1,0.2
			c-0.4-0.3-0.7-0.6-1.2-0.7c-0.2,0-0.3-0.1-0.2-0.3c0.1-0.2-0.2-0.2-0.3-0.4c0,0-0.2,0-0.1-0.1c0.1-0.1,0.1,0,0.2,0
			c0.2,0.1,0.4,0.3,0.5-0.1c0-0.1,0.1,0,0.1,0c0.1,0.1,0.2,0.2,0.2,0.4c0.2,0.3,0.5,0.4,0.8,0.5c0.1,0,0.1,0,0.1,0.1
			C20.4,22.2,20.4,22.2,20.3,22.2z M20.9,18.1c-0.1-0.1,0-0.2,0-0.3c0.1-0.4,0.1-0.4-0.4-0.7c-0.1,0-0.2,0-0.2-0.1
			c0-0.1,0.1-0.1,0.2-0.1c0.1,0,0.2,0,0.4,0c0.3,0,0.2-0.3,0.2-0.5c0-0.1-0.1-0.3,0-0.3c0.1,0,0.2,0.1,0.2,0.2
			c0.2,0.3,0.4,0.5,0.7,0.3c0.1,0,0.2-0.1,0.2,0c0.1,0.1,0,0.2-0.1,0.3c-0.3,0.2-0.3,0.4-0.1,0.6c0,0,0.1,0.1,0.1,0.1
			c0,0.1,0.2,0.2,0.1,0.3c-0.1,0.1-0.2,0-0.3-0.1c-0.4-0.2-0.5-0.2-0.9,0.1C21.1,18.1,21,18.2,20.9,18.1z M21.9,21.9
			c-0.1-0.1,0-0.2,0-0.3c0.1-0.2,0-0.3-0.2-0.4c0,0,0,0,0,0c-0.1-0.1-0.4-0.1-0.3-0.3c0-0.1,0.2,0,0.3,0c0.3,0.1,0.4-0.1,0.4-0.4
			c0-0.1,0-0.2,0.1-0.2c0.1,0,0.1,0.1,0.2,0.1c0.1,0.1,0.2,0.2,0.2,0.4c0.1,0.2,0.4,0.2,0.6,0.2c0.1,0,0.2-0.1,0.3,0.1
			c0,0.1-0.1,0.1-0.2,0.2c-0.2,0.1-0.3,0.2-0.1,0.4c0,0,0,0.1,0.1,0.1c0,0.1,0,0.1-0.1,0.2c-0.1,0-0.1,0-0.2,0
			c-0.2-0.3-0.5-0.3-0.8-0.2C22.1,22,22,22,21.9,21.9z M24.3,25.4c-0.3,0-0.2,0.2-0.1,0.3c0.1,0.1,0.1,0.1,0.1,0.3
			c-0.3-0.1-0.4-0.4-0.7-0.5c-0.3-0.1-0.6,0.1-0.8-0.1c0.2-0.4,0.2-0.4-0.2-0.7c-0.1,0-0.2-0.1-0.1-0.2c0.1-0.1,0.1,0,0.2,0
			c0.1,0,0.2,0.1,0.3,0.1c0.2,0,0.3-0.2,0.3-0.4c0.3,0.2,0.2,0.6,0.6,0.7c0.3,0.1,0.6,0.3,0.9,0.3C24.6,25.3,24.4,25.4,24.3,25.4z
			 M27,23.9c0.1,0.1,0.2,0.2,0.1,0.3c-0.1,0.1-0.2,0-0.3-0.1c-0.1,0-0.3-0.1-0.4-0.2c-0.1,0-0.2,0-0.2,0.1c-0.1,0-0.1,0.1-0.1,0.1
			c-0.1,0.1-0.2,0.2-0.4,0.2c-0.2-0.1,0-0.2,0-0.4c0-0.3-0.1-0.4-0.4-0.5c-0.1,0-0.3-0.1-0.3-0.2c0-0.1,0.2-0.1,0.4-0.1
			c0.4,0,0.5,0,0.5-0.4c0,0,0-0.1,0-0.2c0-0.1,0.1-0.2,0.3-0.1c0,0,0,0.1,0.1,0.1c0.3,0.5,0.3,0.5,0.8,0.3c0.1,0,0.2-0.1,0.2,0
			c0.1,0.1,0,0.2-0.1,0.2c0,0,0,0,0,0C26.8,23.5,26.8,23.5,27,23.9z M27.1,15.3c-0.1,0.2-0.2,0.4-0.4,0.7c0-0.3,0-0.6,0-0.9
			c0-0.2-0.1-0.2-0.2-0.2c-0.2,0-0.5,0-0.5-0.1c0-0.2,0.2-0.2,0.4-0.3c0.3-0.1,0.4-0.3,0.4-0.7c0-0.2,0-0.4,0-0.6
			c0.2,0.1,0.3,0.3,0.4,0.5c0.1,0.2,0.2,0.2,0.4,0.1c0.1-0.1,0.3-0.3,0.4-0.2c0.1,0.1-0.1,0.3-0.1,0.4c-0.2,0.3-0.2,0.5,0.1,0.7
			c0.1,0.1,0.1,0.3,0.2,0.4c-0.1,0.1-0.3,0-0.4,0C27.4,15,27.2,15.1,27.1,15.3z M28.5,20.7c-0.1,0.2-0.2,0.3-0.2,0.5
			c0,0.1,0,0.1-0.1,0.1c-0.1,0-0.1-0.1-0.1-0.2c0-0.2,0-0.4,0.1-0.6c0-0.2-0.1-0.3-0.2-0.3c-0.2,0-0.5,0-0.5-0.2
			c0-0.2,0.3-0.2,0.4-0.3c0.4-0.2,0.3-0.5,0.3-0.8c0-0.2-0.1-0.4,0.1-0.5c0.1,0,0.2,0.2,0.3,0.4c0.2,0.3,0.2,0.3,0.5,0.1
			c0.1-0.1,0.2-0.2,0.4-0.3c0,0,0.1,0,0.1,0c-0.1,0.2-0.2,0.4-0.3,0.6c-0.2,0.3-0.2,0.6,0.1,0.9c0.1,0.1,0.2,0.2,0.2,0.4
			c-0.2,0-0.3,0-0.5-0.1C28.7,20.3,28.5,20.4,28.5,20.7z M30.8,25.8c0,0.1-0.1,0.1-0.2,0c-0.5-0.3-0.8-0.2-1.1,0.4
			c0,0.1-0.1,0.1-0.2,0.1c-0.1,0,0-0.1,0-0.2c0,0,0,0,0-0.1c0.1-0.6,0-0.6-0.5-0.8c-0.1,0-0.2,0-0.3-0.2c0.2-0.1,0.4-0.2,0.6-0.2
			c0.2-0.1,0.3-0.2,0.3-0.4c0-0.2,0-0.5,0-0.7c0.1,0.2,0.4,0.4,0.5,0.6c0,0.1,0.1,0.1,0.2,0.1c0.2-0.1,0.3-0.1,0.5-0.3
			c0,0,0.1-0.1,0.2,0c0.1,0.1,0,0.1,0,0.2c-0.1,0.1-0.1,0.3-0.3,0.4c-0.2,0.2-0.1,0.4,0,0.5c0.1,0.1,0.1,0.3,0.3,0.4
			C30.9,25.7,30.9,25.8,30.8,25.8z M32.5,21.1c-0.4-0.1-0.4,0-0.6,0.3c-0.1,0.2-0.1,0.5-0.3,0.6c-0.1-0.3,0-0.6,0-0.8
			c0-0.2-0.1-0.3-0.3-0.3c-0.1,0-0.2,0-0.2-0.1c-0.1,0-0.3,0.1-0.3-0.1c0-0.1,0.1-0.2,0.2-0.2c0.1-0.1,0.2-0.2,0.4-0.3
			c0.1-0.1,0.2-0.2,0.2-0.3c0-0.3,0-0.5,0-0.8c0-0.1,0-0.1,0.1-0.1c0.1,0,0.1,0,0.1,0.1c0.1,0.1,0.2,0.3,0.3,0.4
			c0.1,0.2,0.2,0.2,0.4,0.1c0.1-0.1,0.2-0.2,0.3-0.1c0.1,0.1,0.1,0.3,0,0.4c-0.2,0.3-0.1,0.6,0.1,0.9c0.1,0.1,0.2,0.2,0.1,0.3
			C32.7,21.2,32.6,21.1,32.5,21.1z M32.4,13.1c0,0-0.1,0.1-0.2,0.1c-0.1,0,0-0.1,0-0.2c0.1-0.4,0-0.5-0.4-0.7c-0.1,0-0.2,0-0.1-0.1
			c0-0.1,0.1-0.1,0.2-0.1c0.5,0,0.4,0,0.5-0.4c0,0,0-0.1,0.1-0.1c0.1,0,0.1,0,0.1,0.1c0,0,0,0,0,0.1c0.2,0.3,0.3,0.5,0.7,0.5
			c0.1,0,0.2,0.1,0.3,0.1c-0.1,0.2-0.4,0.1-0.3,0.4c0.1,0.2,0.2,0.3,0.3,0.4c-0.1,0-0.2,0-0.2-0.1C33,12.8,32.7,12.7,32.4,13.1z
			 M33.6,17.7c0,0.1,0,0.1-0.1,0.1C33.4,17.8,33.5,17.7,33.6,17.7c-0.1-0.2-0.1-0.4-0.1-0.6c0-0.2-0.3-0.2-0.4-0.3
			c-0.1,0-0.2,0-0.2-0.1c0-0.1,0.1-0.1,0.2-0.1c0.5-0.1,0.5-0.5,0.5-0.9c0.1,0.1,0.2,0.2,0.3,0.3c0.1,0.3,0.3,0.3,0.6,0.2
			c0.1-0.1,0.2-0.1,0.3,0c0.1,0.1,0,0.2-0.1,0.2c-0.3,0.3-0.3,0.3,0,0.7c0.1,0.1,0.1,0.2,0.2,0.3c-0.1-0.1-0.2-0.1-0.3-0.1
			C34,17.1,33.7,17.2,33.6,17.7z M35.7,22.1c-0.3-0.1-0.4,0-0.5,0.3c-0.1,0.2-0.1,0.4-0.2,0.4c-0.2,0,0-0.3,0-0.4
			c0-0.4,0-0.4-0.5-0.5c-0.1,0-0.2,0-0.3-0.1c0-0.2,0.1-0.2,0.2-0.2c0.1-0.1,0.2-0.2,0.4-0.3c0.1-0.1,0.1-0.2,0.1-0.4
			c0-0.1,0-0.2,0-0.4c0.1-0.1,0.1-0.1,0.2,0c0.3,0.4,0.3,0.4,0.8,0.1c0,0,0.1,0,0.1,0c-0.4,0.5-0.3,1,0.2,1.4
			C36,22.2,35.8,22.2,35.7,22.1z M38.2,19c-0.2-0.2-0.4-0.2-0.6-0.4c-0.2-0.1-0.3,0.1-0.4,0.2c-0.1,0-0.1,0.1-0.2,0.2
			c-0.1-0.2,0-0.4-0.1-0.6c-0.1-0.2-0.4-0.2-0.5-0.4c0.1,0,0.2-0.1,0.3-0.1c0.2,0,0.4-0.1,0.4-0.4c0-0.1,0.2-0.1,0.2,0
			c0.2,0.4,0.5,0.5,0.8,0.5c0.1,0,0.1,0.1,0.1,0.2c-0.3,0.3-0.3,0.3,0,0.7C38.2,18.8,38.2,18.9,38.2,19z M38.4,14.5
			c0.1-0.2-0.2-0.3-0.3-0.5c0.2,0.2,0.4,0.2,0.6,0c0,0,0.1,0,0.1,0c0.3,0.4,0.6,0.7,1.1,0.9c-0.1,0.1-0.2,0-0.2,0.1
			c0,0.1,0.1,0.2,0.1,0.3c-0.2,0-0.2-0.2-0.4-0.3c-0.3-0.2-0.5-0.3-0.9-0.4C38.4,14.7,38.4,14.7,38.4,14.5z M39.5,17.6
			c-0.2,0-0.2-0.1-0.1-0.2c0.1-0.1,0.1-0.2-0.1-0.3c-0.1,0-0.1-0.1,0-0.1c0.1,0,0.2,0,0.3-0.1c0.1-0.4,0.2-0.1,0.3,0
			c0.3,0.4,0.7,0.6,1.1,0.8c-0.1-0.1-0.2,0-0.3,0c-0.2,0-0.2,0-0.1,0.2c0,0,0.1,0.1,0,0.1c-0.1,0.1-0.1,0-0.1,0
			C40.2,17.7,39.9,17.6,39.5,17.6z M41.8,20.8c-0.3,0-0.3,0.1-0.1,0.3c0,0.1,0.2,0.1,0.1,0.2c-0.1,0.1-0.1,0-0.2-0.1
			c-0.3-0.3-0.7-0.3-1-0.1c-0.1,0.1-0.2,0-0.1-0.1c0.2-0.5-0.2-0.7-0.5-0.9c0,0-0.1-0.1-0.1-0.1c0,0,0,0,0-0.1
			c0.2,0.1,0.4,0.1,0.6,0.1c0.1,0.1,0.2,0,0.2-0.2c0-0.1,0-0.2,0.1-0.2c0.1,0,0.1,0.1,0.2,0.1c0.2,0.3,0.5,0.6,0.9,0.6
			c0.1,0,0.1,0,0.1,0.1C41.9,20.7,41.9,20.7,41.8,20.8z"/>
	</g>
	<g>
		<path style="fill:#FFFFFF;" d="M12,58.5h-1.2c-0.1,0-0.2-0.1-0.1-0.3l1.9-7.2c0.1-0.2,0.2-0.3,0.4-0.3h1.6c0.2,0,0.3,0.1,0.4,0.3
			l1.9,7.2c0,0.2,0,0.3-0.1,0.3h-1.2c-0.1,0-0.1,0-0.2-0.1c0,0-0.1-0.1-0.1-0.2L15,57h-2.3l-0.3,1.3c0,0.1,0,0.2-0.1,0.2
			C12.2,58.5,12.1,58.5,12,58.5z M13.8,52.3l-0.9,3.5h1.8L13.8,52.3L13.8,52.3z"/>
		<path style="fill:#FFFFFF;" d="M17.9,53.7h-0.5c-0.1,0-0.2,0-0.2,0c0,0-0.1-0.1-0.1-0.2v-0.8c0-0.2,0.1-0.3,0.3-0.3h0.5
			c0.1,0,0.1,0,0.1-0.1v-1.1c0-0.2,0.1-0.3,0.3-0.3h1c0.2,0,0.3,0.1,0.3,0.3v1.1c0,0.1,0,0.1,0.1,0.1h0.9c0.2,0,0.3,0.1,0.3,0.3v0.8
			c0,0.1,0,0.2-0.1,0.2c0,0-0.1,0.1-0.2,0.1h-0.9c-0.1,0-0.1,0-0.1,0.1v2.7c0,0.2,0.1,0.4,0.2,0.5c0.1,0.1,0.3,0.2,0.6,0.2h0.5
			c0.2,0,0.3,0.1,0.3,0.3v0.8c0,0.1,0,0.2-0.1,0.2c0,0-0.1,0.1-0.2,0.1h-0.7c-0.6,0-1.1-0.2-1.5-0.5c-0.3-0.3-0.5-0.8-0.5-1.4v-2.7
			C18.1,53.8,18,53.7,17.9,53.7z"/>
		<path style="fill:#FFFFFF;" d="M23.4,58.5h-1c-0.2,0-0.3-0.1-0.3-0.3v-7.9c0-0.2,0.1-0.3,0.3-0.3h1c0.2,0,0.3,0.1,0.3,0.3v7.9
			C23.6,58.5,23.5,58.5,23.4,58.5z"/>
		<path style="fill:#FFFFFF;" d="M27.2,58.5h-0.3c-0.6,0-1.1-0.2-1.5-0.5c-0.3-0.3-0.5-0.8-0.5-1.5v-2.2c0-0.6,0.2-1.1,0.5-1.5
			c0.3-0.3,0.8-0.5,1.5-0.5h2.8c0.2,0,0.3,0.1,0.3,0.3v5.6c0,0.2-0.1,0.3-0.3,0.3h-1c-0.2,0-0.3-0.1-0.3-0.3v-0.4h0
			c-0.1,0.2-0.2,0.4-0.5,0.5C27.6,58.5,27.4,58.5,27.2,58.5z M28.4,56.3v-2.4c0-0.1,0-0.1-0.1-0.1h-1.1c-0.3,0-0.4,0.1-0.5,0.2
			c-0.1,0.1-0.2,0.3-0.2,0.5v2.1c0,0.3,0.1,0.4,0.2,0.5c0.1,0.1,0.3,0.2,0.5,0.2h0.4C28.1,57.2,28.4,56.9,28.4,56.3z"/>
		<path style="fill:#FFFFFF;" d="M32.5,58.5h-1c-0.2,0-0.3-0.1-0.3-0.3v-5.6c0-0.2,0.1-0.3,0.3-0.3h1c0.2,0,0.3,0.1,0.3,0.3v0.4h0
			c0.2-0.4,0.6-0.6,1.2-0.6h0.4c1.3,0,1.9,0.7,1.9,2v3.9c0,0.2-0.1,0.3-0.3,0.3h-1c-0.2,0-0.3-0.1-0.3-0.3v-3.8
			c0-0.3-0.1-0.4-0.2-0.5c-0.1-0.1-0.3-0.2-0.5-0.2h-0.4c-0.6,0-0.8,0.3-0.8,0.9v3.6C32.7,58.5,32.7,58.5,32.5,58.5z"/>
		<path style="fill:#FFFFFF;" d="M37.6,53.7h-0.5c-0.1,0-0.2,0-0.2,0c0,0-0.1-0.1-0.1-0.2v-0.8c0-0.2,0.1-0.3,0.3-0.3h0.5
			c0.1,0,0.1,0,0.1-0.1v-1.1c0-0.2,0.1-0.3,0.3-0.3h1c0.2,0,0.3,0.1,0.3,0.3v1.1c0,0.1,0,0.1,0.1,0.1h0.9c0.2,0,0.3,0.1,0.3,0.3v0.8
			c0,0.1,0,0.2-0.1,0.2c0,0-0.1,0.1-0.2,0.1h-0.9c-0.1,0-0.1,0-0.1,0.1v2.7c0,0.2,0.1,0.4,0.2,0.5c0.1,0.1,0.3,0.2,0.6,0.2h0.5
			c0.2,0,0.3,0.1,0.3,0.3v0.8c0,0.1,0,0.2-0.1,0.2c0,0-0.1,0.1-0.2,0.1h-0.7c-0.6,0-1.1-0.2-1.5-0.5c-0.3-0.3-0.5-0.8-0.5-1.4v-2.7
			C37.8,53.8,37.7,53.7,37.6,53.7z"/>
		<path style="fill:#FFFFFF;" d="M41.8,51.4v-1c0-0.2,0.1-0.2,0.2-0.2h1c0.2,0,0.2,0.1,0.2,0.2v1.1c0,0.2-0.1,0.2-0.2,0.2h-1
			C41.9,51.6,41.8,51.5,41.8,51.4z M41.8,58.3v-5.6c0-0.2,0.1-0.3,0.2-0.3h1c0.2,0,0.3,0.1,0.3,0.3v5.6c0,0.1,0,0.2-0.1,0.2
			s-0.1,0-0.2,0h-1C41.9,58.5,41.8,58.5,41.8,58.3z"/>
		<path style="fill:#FFFFFF;" d="M48.6,57.5v0.8c0,0.1,0,0.2-0.1,0.2c0,0-0.1,0.1-0.2,0.1h-1.8c-0.6,0-1.1-0.2-1.5-0.5
			c-0.3-0.3-0.5-0.8-0.5-1.5v-2.2c0-0.6,0.2-1.1,0.5-1.5c0.3-0.3,0.8-0.5,1.5-0.5h1.8c0.2,0,0.3,0.1,0.3,0.3v0.8
			c0,0.1,0,0.2-0.1,0.2c0,0-0.1,0.1-0.2,0.1h-1.5c-0.2,0-0.4,0.1-0.5,0.2c-0.1,0.1-0.2,0.3-0.2,0.5v2.1c0,0.3,0.1,0.4,0.2,0.5
			c0.1,0.1,0.3,0.2,0.5,0.2h1.5C48.5,57.2,48.6,57.3,48.6,57.5z"/>
		<path style="fill:#FFFFFF;" d="M53.6,58.5h-1c-0.2,0-0.3-0.1-0.3-0.3v-7.2c0-0.2,0.1-0.3,0.3-0.3h0.9c0.2,0,0.3,0.1,0.3,0.2
			l2.4,4.5h0v-4.5c0-0.2,0.1-0.3,0.3-0.3h1c0.2,0,0.3,0.1,0.3,0.3v7.2c0,0.2-0.1,0.3-0.3,0.3h-0.9c-0.2,0-0.3-0.1-0.4-0.2l-2.4-4.5
			h0v4.5C53.9,58.5,53.8,58.5,53.6,58.5z"/>
		<path style="fill:#FFFFFF;" d="M59.3,51.4v-1c0-0.2,0.1-0.2,0.2-0.2h1c0.2,0,0.2,0.1,0.2,0.2v1.1c0,0.2-0.1,0.2-0.2,0.2h-1
			C59.4,51.6,59.3,51.5,59.3,51.4z M59.3,58.3v-5.6c0-0.2,0.1-0.3,0.2-0.3h1c0.2,0,0.3,0.1,0.3,0.3v5.6c0,0.1,0,0.2-0.1,0.2
			c0,0-0.1,0-0.2,0h-1C59.4,58.5,59.3,58.5,59.3,58.3z"/>
		<path style="fill:#FFFFFF;" d="M62.4,53.7h-0.5c-0.1,0-0.2,0-0.2,0c0,0-0.1-0.1-0.1-0.2v-0.8c0-0.2,0.1-0.3,0.3-0.3h0.5
			c0.1,0,0.1,0,0.1-0.1v-1.1c0-0.2,0.1-0.3,0.3-0.3h1c0.2,0,0.3,0.1,0.3,0.3v1.1c0,0.1,0,0.1,0.1,0.1h0.9c0.2,0,0.3,0.1,0.3,0.3v0.8
			c0,0.1,0,0.2-0.1,0.2c0,0-0.1,0.1-0.2,0.1h-0.9c-0.1,0-0.1,0-0.1,0.1v2.7c0,0.2,0.1,0.4,0.2,0.5c0.1,0.1,0.3,0.2,0.6,0.2h0.5
			c0.2,0,0.3,0.1,0.3,0.3v0.8c0,0.1,0,0.2-0.1,0.2s-0.1,0.1-0.2,0.1h-0.7c-0.6,0-1.1-0.2-1.5-0.5c-0.3-0.3-0.5-0.8-0.5-1.4v-2.7
			C62.5,53.8,62.5,53.7,62.4,53.7z"/>
		<path style="fill:#FFFFFF;" d="M67.8,58.5h-1c-0.2,0-0.3-0.1-0.3-0.3v-5.6c0-0.2,0.1-0.3,0.3-0.3h1c0.2,0,0.3,0.1,0.3,0.3v0.4h0
			c0.1-0.2,0.2-0.4,0.5-0.5c0.2-0.1,0.5-0.2,0.7-0.2h0.4c0.2,0,0.2,0.1,0.2,0.3v0.8c0,0.1,0,0.2-0.1,0.2c0,0-0.1,0-0.2,0h-0.8
			c-0.6,0-0.8,0.3-0.8,0.9v3.6C68,58.5,67.9,58.5,67.8,58.5z"/>
		<path style="fill:#FFFFFF;" d="M73.6,58.5h-1.1c-0.6,0-1.1-0.2-1.5-0.5s-0.5-0.8-0.5-1.5v-2.2c0-0.6,0.2-1.1,0.5-1.5
			s0.8-0.5,1.5-0.5h1.1c0.6,0,1.1,0.2,1.5,0.5c0.3,0.3,0.5,0.8,0.5,1.4v2.2c0,0.6-0.2,1.1-0.5,1.4S74.2,58.5,73.6,58.5z M72.8,57.2
			h0.6c0.3,0,0.4-0.1,0.5-0.2c0.1-0.1,0.2-0.3,0.2-0.5v-2.1c0-0.3-0.1-0.4-0.2-0.5c-0.1-0.1-0.3-0.2-0.5-0.2h-0.6
			c-0.3,0-0.4,0.1-0.5,0.2c-0.1,0.1-0.2,0.3-0.2,0.5v2.1c0,0.3,0.1,0.4,0.2,0.5C72.3,57.2,72.5,57.2,72.8,57.2z"/>
		<path style="fill:#FFFFFF;" d="M78.9,58.3h-0.4c-0.6,0-1.1-0.2-1.4-0.5c-0.3-0.3-0.5-0.8-0.5-1.5v-1.9c0-0.6,0.2-1.1,0.5-1.5
			c0.3-0.3,0.8-0.5,1.5-0.5h2.8c0.2,0,0.3,0.1,0.3,0.3v5.9c0,0.6-0.2,1.1-0.5,1.4s-0.8,0.5-1.5,0.5h-2.3c-0.1,0-0.2,0-0.2-0.1
			c0,0-0.1-0.1-0.1-0.2v-0.8c0-0.2,0.1-0.3,0.3-0.3h2.1c0.3,0,0.4-0.1,0.5-0.2c0.1-0.1,0.2-0.3,0.2-0.5v-0.9h0
			c-0.1,0.2-0.2,0.4-0.5,0.5C79.4,58.2,79.2,58.3,78.9,58.3z M80.2,56v-2.2c0-0.1,0-0.1-0.1-0.1h-1.1c-0.3,0-0.4,0.1-0.5,0.2
			c-0.1,0.1-0.2,0.3-0.2,0.5v1.8c0,0.3,0.1,0.4,0.2,0.5c0.1,0.1,0.3,0.2,0.5,0.2h0.4C79.9,56.9,80.2,56.6,80.2,56z"/>
		<path style="fill:#FFFFFF;" d="M87.5,58.5h-2.7c-0.6,0-1.1-0.2-1.5-0.5s-0.5-0.8-0.5-1.5v-2.2c0-0.6,0.2-1.1,0.5-1.5
			s0.8-0.5,1.5-0.5h0.9c0.6,0,1.1,0.2,1.5,0.5s0.5,0.8,0.5,1.5v1.5c0,0.2-0.1,0.3-0.3,0.3h-3c-0.1,0-0.1,0-0.1,0.1v0.3
			c0,0.2,0.1,0.4,0.2,0.5c0.1,0.1,0.3,0.2,0.5,0.2h2.4c0.2,0,0.3,0.1,0.3,0.3v0.8c0,0.1,0,0.2-0.1,0.2S87.6,58.5,87.5,58.5z
			 M84.5,55.1h1.6c0.1,0,0.1,0,0.1-0.1v-0.6c0-0.3-0.1-0.4-0.2-0.5c-0.1-0.1-0.3-0.2-0.5-0.2h-0.5c-0.3,0-0.4,0.1-0.5,0.2
			c-0.1,0.1-0.2,0.3-0.2,0.5V55C84.4,55.1,84.4,55.1,84.5,55.1z"/>
		<path style="fill:#FFFFFF;" d="M90.2,58.5h-1c-0.2,0-0.3-0.1-0.3-0.3v-5.6c0-0.2,0.1-0.3,0.3-0.3h1c0.2,0,0.3,0.1,0.3,0.3v0.4h0
			c0.2-0.4,0.6-0.6,1.2-0.6h0.4c1.3,0,1.9,0.7,1.9,2v3.9c0,0.2-0.1,0.3-0.3,0.3h-1c-0.2,0-0.3-0.1-0.3-0.3v-3.8
			c0-0.3-0.1-0.4-0.2-0.5c-0.1-0.1-0.3-0.2-0.5-0.2h-0.4c-0.6,0-0.8,0.3-0.8,0.9v3.6C90.5,58.5,90.4,58.5,90.2,58.5z"/>
	</g>
</g>
</svg>
