<?xml version="1.0" standalone="no"?>
<!DOCTYPE svg PUBLIC "-//W3C//DTD SVG 20010904//EN"
 "http://www.w3.org/TR/2001/REC-SVG-20010904/DTD/svg10.dtd">
<svg version="1.0" xmlns="http://www.w3.org/2000/svg"
 width="700.000000pt" height="700.000000pt" viewBox="0 0 700.000000 700.000000"
 preserveAspectRatio="xMidYMid meet">
<metadata>
Created by potrace 1.14, written by Peter Selinger 2001-2017
</metadata>
<g transform="translate(0.000000,700.000000) scale(0.100000,-0.100000)"
fill="#000000" stroke="none">
<path d="M1675 5172 c-44 -16 -168 -74 -275 -129 -208 -107 -291 -135 -403
-136 -167 -2 -316 50 -570 196 -54 31 -103 57 -108 57 -5 0 -9 5 -9 10 0 6 -6
10 -14 10 -16 0 -14 -17 14 -135 12 -49 24 -99 26 -110 2 -11 6 -29 8 -40 3
-11 14 -63 26 -115 12 -52 23 -106 25 -120 2 -14 11 -64 19 -112 31 -175 47
-264 52 -298 12 -82 15 -99 29 -180 9 -47 17 -96 19 -110 29 -190 42 -260 47
-260 4 0 40 15 80 34 112 50 198 69 331 72 182 4 280 -25 475 -137 57 -32 105
-59 107 -59 2 0 33 -17 67 -38 243 -147 376 -193 538 -188 146 4 231 43 476
220 177 127 297 175 430 171 97 -2 216 -32 222 -56 3 -10 25 -24 56 -34 54
-17 197 -87 302 -147 202 -115 403 -188 515 -189 156 -1 212 29 475 244 66 54
136 105 155 114 49 21 176 28 241 14 88 -20 151 -47 404 -174 338 -168 429
-200 562 -193 105 6 183 31 183 58 0 17 -114 248 -123 248 -4 0 -31 -15 -60
-34 -75 -50 -141 -66 -245 -61 -48 2 -96 6 -107 8 -117 28 -219 71 -385 164
-176 99 -239 129 -323 158 -197 66 -313 52 -457 -53 -31 -23 -147 -119 -160
-132 -23 -24 -96 -74 -149 -100 -53 -27 -78 -34 -150 -38 -151 -8 -282 33
-526 165 -77 42 -162 83 -190 93 -47 16 -51 20 -68 70 -10 29 -16 54 -14 56 1
2 41 -17 87 -42 252 -132 357 -167 505 -167 159 0 235 32 405 172 164 135 254
174 395 175 68 0 104 -5 145 -21 71 -27 210 -96 330 -163 219 -123 355 -180
474 -198 125 -20 223 14 338 116 52 47 52 51 -3 169 -28 59 -55 113 -61 120
-7 9 -31 -4 -90 -48 -145 -107 -231 -149 -319 -154 -114 -6 -215 31 -502 189
-167 91 -262 139 -342 171 -94 38 -238 38 -341 1 -91 -32 -211 -100 -287 -162
-33 -27 -159 -88 -239 -115 -45 -15 -77 -18 -150 -15 -106 4 -197 35 -327 109
-72 41 -75 44 -91 98 l-17 56 85 -30 c197 -68 375 -26 603 142 162 118 242
146 399 138 102 -5 116 -8 194 -33 63 -21 140 -59 275 -137 238 -137 375 -186
532 -192 92 -3 100 -2 158 28 34 18 107 71 164 119 56 48 112 95 124 105 l22
18 -49 103 c-27 56 -54 102 -60 102 -16 0 -139 -84 -185 -126 -115 -105 -224
-164 -310 -168 -53 -3 -197 31 -268 63 -23 10 -58 26 -77 34 -19 9 -80 41
-135 72 -300 168 -491 232 -640 213 -115 -15 -138 -27 -441 -226 -79 -52 -217
-89 -291 -78 -60 8 -137 26 -151 35 -7 4 -23 42 -36 84 l-24 77 22 1 c179 8
262 36 434 147 206 133 245 149 364 156 132 7 245 -31 544 -185 276 -142 378
-180 504 -184 154 -6 208 16 379 157 87 72 153 111 209 123 18 3 32 13 32 21
0 17 -61 157 -72 165 -17 11 -129 -2 -183 -22 -31 -11 -104 -53 -163 -92 -59
-40 -111 -74 -117 -76 -5 -2 -21 -12 -34 -23 -63 -48 -205 -62 -345 -33 -102
21 -185 56 -394 167 -280 148 -356 176 -495 183 -119 5 -175 -16 -387 -151
-80 -50 -168 -101 -195 -113 -58 -25 -147 -41 -167 -31 -7 4 -40 10 -73 13
-33 3 -94 18 -135 32 -73 26 -302 136 -328 157 -30 26 -184 103 -272 139 -99
39 -153 50 -275 55 -113 4 -125 3 -200 -24z m183 -83 c10 -15 21 -20 38 -16
23 4 24 3 9 -13 -11 -12 -13 -20 -5 -25 15 -9 1 -27 -17 -21 -8 3 -25 -5 -39
-19 -19 -19 -24 -21 -20 -8 7 22 -3 37 -28 46 -17 7 -16 9 8 28 14 11 26 27
26 35 0 20 13 17 28 -7z m-1318 -151 c34 -33 33 -48 -3 -30 -12 6 -32 13 -44
17 -26 7 -27 40 -1 42 10 1 31 -12 48 -29z m1810 -37 c0 -14 -6 -17 -30 -13
-16 2 -28 8 -25 12 3 5 -2 16 -11 24 -14 15 -14 16 0 16 9 0 16 7 16 15 0 9 8
6 25 -11 14 -14 25 -33 25 -43z m-212 12 c9 3 12 -7 12 -33 0 -17 -3 -19 -18
-11 -14 7 -25 6 -39 -4 -19 -13 -20 -12 -15 10 3 17 -1 27 -12 31 -15 6 -14 9
6 28 l23 21 18 -22 c10 -13 21 -22 25 -20z m-694 2 c6 -17 42 -20 51 -5 3 6
11 10 16 10 6 0 2 -15 -9 -32 -18 -29 -19 -35 -7 -52 18 -25 11 -36 -20 -30
-17 3 -27 -2 -35 -16 -15 -28 -27 -25 -26 7 1 21 -5 29 -24 34 l-25 6 28 13
c21 11 27 20 27 47 0 34 13 44 24 18z m250 -71 c4 -11 14 -15 31 -11 26 5 43
-7 25 -18 -13 -8 -13 -52 0 -60 20 -12 9 -25 -20 -25 -25 0 -34 -6 -45 -32
l-14 -33 -1 38 c0 30 -4 37 -20 37 -11 0 -20 4 -20 8 0 5 9 17 20 27 12 11 20
31 20 52 0 35 13 44 24 17z m-636 -94 c24 0 25 -1 7 -14 -17 -12 -18 -16 -5
-32 14 -16 13 -17 -5 -9 -11 5 -34 9 -52 9 -27 0 -32 4 -35 28 -3 15 -1 28 3
28 3 0 9 10 12 22 6 22 6 22 27 -5 14 -17 31 -27 48 -27z m-508 20 c8 0 28
-12 44 -26 22 -20 26 -28 17 -37 -10 -9 -15 -8 -25 6 -7 9 -25 17 -40 17 -23
0 -26 3 -21 20 4 11 2 20 -4 20 -6 0 -11 5 -11 12 0 9 3 9 12 0 7 -7 19 -12
28 -12z m2050 -20 c6 0 10 -9 10 -20 0 -16 -4 -19 -17 -12 -10 5 -23 8 -28 6
-6 -3 -12 12 -13 33 l-3 38 21 -23 c11 -12 25 -22 30 -22z m-650 20 c0 -5 12
-10 26 -10 21 0 25 -3 19 -17 -4 -10 -7 -22 -7 -28 0 -5 3 -18 7 -27 5 -14 2
-18 -14 -18 -12 0 -30 -9 -41 -20 -21 -21 -35 -27 -25 -10 11 18 -6 50 -26 50
-27 0 -24 15 6 28 22 10 30 28 26 55 0 4 6 7 14 7 8 0 15 -4 15 -10z m470 -32
c0 -5 -5 -8 -10 -8 -7 0 -7 -6 0 -20 12 -23 3 -25 -23 -6 -10 8 -27 12 -37 9
-14 -4 -20 0 -20 12 0 10 -8 24 -17 31 -17 12 -16 13 4 9 13 -2 25 0 28 4 5
10 74 -20 75 -31z m365 -14 c14 -14 30 -22 35 -19 15 9 12 -4 -4 -21 -8 -8
-17 -10 -20 -5 -4 5 -20 12 -36 16 -20 4 -30 13 -30 25 0 15 5 21 27 29 1 1
14 -10 28 -25z m-1991 1 c3 -9 19 -21 35 -28 22 -9 27 -17 21 -27 -7 -11 -11
-11 -24 -1 -8 7 -27 16 -43 20 -28 7 -38 30 -18 43 15 11 22 10 29 -7z m1438
-80 c14 3 16 0 8 -15 -6 -10 -7 -26 -3 -36 5 -14 2 -16 -15 -12 -16 4 -27 0
-37 -15 l-15 -21 0 21 c0 14 -10 28 -26 36 l-25 13 25 12 c17 7 26 20 26 34
l0 21 23 -20 c12 -11 30 -19 39 -18z m-950 -15 c7 -11 23 -20 35 -20 25 0 29
-10 11 -28 -9 -9 -9 -15 0 -24 20 -20 14 -28 -12 -18 -19 7 -30 4 -50 -11
l-26 -20 0 25 c0 19 -6 27 -25 32 -32 8 -27 28 8 32 21 3 27 9 27 28 0 29 15
31 32 4z m1370 -60 c18 -11 27 -20 20 -20 -10 0 -10 -5 -2 -20 11 -21 4 -25
-20 -10 -9 5 -19 5 -27 -2 -7 -6 -13 -9 -14 -7 0 2 -2 12 -4 22 -2 10 -11 27
-21 38 -16 18 -16 19 9 19 15 0 41 -9 59 -20z m-1970 -50 c9 0 9 -3 1 -11 -6
-6 -9 -18 -6 -26 5 -13 2 -13 -20 1 -14 10 -36 16 -49 14 -17 -2 -23 2 -24 18
-1 12 -4 26 -8 33 -4 6 -1 11 8 11 9 0 16 5 16 11 0 6 16 -3 35 -20 20 -17 41
-31 47 -31z m2180 6 c25 -25 32 -39 26 -48 -7 -10 -11 -10 -14 -1 -3 7 -21 17
-40 23 -35 12 -47 43 -21 53 6 3 13 6 14 6 0 1 16 -14 35 -33z m-1288 14 c38
14 38 14 31 -29 -5 -30 -2 -42 12 -57 17 -17 17 -18 -2 -10 -44 18 -53 18 -64
-3 -16 -28 -31 -27 -31 3 0 14 -9 32 -22 40 l-21 15 26 10 c15 6 27 18 27 28
0 13 2 15 8 5 7 -10 15 -10 36 -2z m911 -40 c8 0 15 -4 15 -10 0 -5 -5 -10
-10 -10 -7 0 -7 -8 1 -22 9 -19 9 -21 -2 -10 -17 15 -51 16 -67 0 -9 -9 -12
-6 -12 14 0 18 -7 29 -21 33 -19 6 -18 18 2 21 5 1 14 2 19 3 6 0 10 8 10 17
0 13 6 11 25 -10 13 -14 31 -26 40 -26z m-1590 -18 c18 -10 18 -11 3 -17 -9
-4 -27 0 -40 9 -12 9 -31 16 -41 16 -11 0 -17 6 -15 18 5 28 31 32 53 7 11
-13 29 -28 40 -33z m226 8 c10 0 19 -4 19 -10 0 -5 -5 -10 -11 -10 -6 0 -8 -9
-4 -20 6 -19 4 -19 -30 5 -21 13 -42 22 -47 19 -5 -3 -16 2 -23 12 -20 26 -18
33 5 27 12 -3 22 1 26 11 5 13 9 12 26 -9 11 -14 28 -25 39 -25z m705 -30 c27
11 31 1 12 -30 -10 -16 -10 -24 0 -40 19 -31 15 -43 -14 -36 -19 5 -30 1 -44
-16 l-19 -23 4 23 c3 18 -3 25 -28 36 l-32 13 33 17 c27 14 32 22 33 54 0 36
0 36 15 15 13 -18 20 -20 40 -13z m240 -69 c21 17 29 3 16 -25 -9 -19 -8 -27
4 -36 23 -20 17 -38 -12 -32 -20 4 -32 -2 -50 -24 l-23 -29 -1 33 c0 25 -4 32
-20 32 -27 0 -25 14 5 34 19 13 25 25 25 54 l1 37 20 -28 c17 -22 24 -25 35
-16z m642 -26 c7 -14 20 -25 31 -25 11 0 23 -4 26 -10 3 -5 1 -10 -5 -10 -7 0
-10 -7 -6 -15 6 -17 -9 -21 -19 -5 -4 6 -18 9 -32 8 -18 -2 -27 2 -28 15 -2 9
-14 26 -27 37 l-23 20 28 -10 c22 -8 27 -7 27 5 0 23 16 18 28 -10z m212 -20
c13 -14 28 -25 35 -25 6 0 11 -8 11 -19 0 -17 -3 -17 -32 5 -17 13 -41 24 -54
24 -13 0 -20 3 -17 7 4 3 3 11 -3 17 -19 24 37 15 60 -9z m-1572 -15 c7 -12
23 -20 40 -20 23 -1 25 -2 12 -13 -9 -7 -14 -20 -12 -30 3 -15 0 -16 -23 -5
-19 9 -28 9 -37 0 -17 -17 -30 -15 -26 6 2 9 -6 25 -17 34 -20 17 -20 17 3 18
12 0 25 7 28 15 8 20 17 19 32 -5z m968 3 c20 4 24 1 18 -12 -8 -18 -10 -49
-3 -71 3 -11 -3 -14 -22 -12 -20 2 -28 -2 -32 -17 -3 -12 -10 -21 -16 -21 -6
0 -8 6 -5 14 6 16 -23 49 -37 41 -19 -12 -8 9 17 31 14 13 22 29 19 34 -11 17
5 32 21 19 8 -6 25 -9 40 -6z m-1633 -8 c4 -8 23 -22 44 -31 29 -13 34 -18 20
-21 -13 -3 -17 -11 -14 -25 4 -15 2 -18 -11 -12 -28 11 -66 5 -81 -14 -12 -15
-13 -14 -8 11 3 21 -2 32 -19 46 -31 24 -30 33 1 27 18 -3 29 1 38 15 14 23
23 24 30 4z m233 -12 c18 -16 34 -36 34 -46 0 -16 -2 -16 -24 -1 -22 14 -42
21 -69 23 -17 2 3 50 21 51 2 0 19 -12 38 -27z m260 -71 c10 -7 13 -10 5 -6
-10 5 -13 3 -8 -9 5 -14 1 -14 -31 3 -20 11 -42 20 -49 20 -14 0 -13 26 1 48
6 11 14 7 35 -15 15 -15 36 -34 47 -41z m1358 -18 c3 -8 16 -15 28 -14 36 3
44 0 28 -10 -12 -7 -13 -15 -4 -38 11 -30 11 -30 -17 -22 -24 7 -32 5 -44 -13
-15 -21 -20 -14 -16 20 1 6 -8 14 -19 18 -26 8 -26 21 0 28 12 3 20 14 20 26
0 25 15 28 24 5z m-883 -47 c21 6 21 5 5 -19 -14 -22 -14 -26 0 -46 13 -19 13
-22 0 -22 -8 0 -17 4 -21 10 -8 13 -51 -5 -47 -20 1 -6 -2 -9 -8 -5 -6 4 -8
15 -5 25 4 12 -3 25 -22 40 l-28 22 30 -4 c27 -3 30 0 33 26 4 28 4 28 22 8
13 -13 27 -18 41 -15z m1371 -52 c15 -5 17 -10 7 -21 -8 -9 -16 -11 -23 -5 -6
5 -24 11 -39 13 -15 2 -26 7 -25 10 2 2 -3 12 -11 21 -12 15 -11 17 3 17 9 0
16 5 16 11 0 7 12 0 26 -14 14 -15 35 -29 46 -32z m-2018 -45 c14 0 14 -2 -1
-19 -9 -11 -21 -17 -26 -14 -6 3 -24 9 -41 13 -17 3 -30 10 -29 15 1 6 -8 20
-20 33 l-22 24 26 -7 c15 -4 30 -2 33 3 3 6 19 -2 35 -19 16 -16 37 -29 45
-29z m924 9 c26 14 30 -3 7 -33 -12 -16 -12 -21 0 -40 21 -30 18 -37 -11 -26
-21 8 -29 6 -49 -18 l-25 -27 6 32 c5 25 2 33 -16 43 l-21 11 25 24 c14 13 26
34 26 47 l0 23 19 -24 c15 -20 21 -22 39 -12z m872 11 c11 -11 27 -20 35 -20
17 0 20 -16 5 -25 -7 -4 -7 -13 0 -25 10 -19 9 -19 -21 -2 -24 13 -33 14 -36
5 -8 -21 -20 -15 -27 12 -4 14 -14 25 -24 25 -12 1 -9 5 11 16 15 8 27 19 27
24 0 15 8 12 30 -10z m-1577 -65 c45 -27 14 -36 -42 -13 -35 15 -46 25 -46 43
0 14 5 21 13 18 6 -3 12 1 12 8 0 8 8 2 17 -12 9 -15 29 -34 46 -44z m248 -5
c10 0 19 -4 19 -10 0 -5 -7 -10 -16 -10 -10 0 -14 -6 -11 -14 5 -13 1 -13 -28
0 -19 8 -43 14 -54 14 -14 0 -19 5 -14 15 3 9 -3 22 -13 31 -18 14 -18 15 3 9
12 -3 24 -1 28 5 4 7 18 1 37 -15 16 -14 38 -25 49 -25z m-726 -10 c3 -11 15
-21 26 -21 10 -1 24 -3 29 -4 6 -1 13 -3 18 -4 4 -1 -2 -8 -13 -17 -16 -12
-18 -18 -7 -34 19 -31 15 -41 -14 -30 -34 13 -31 14 -61 -17 l-26 -28 6 30 c7
37 0 50 -31 59 -28 9 -19 26 13 26 18 0 25 7 30 30 8 35 21 39 30 10z m1397
-2 c14 -20 15 -20 41 -4 l26 18 -16 -41 c-15 -38 -15 -42 0 -59 24 -27 21 -32
-15 -30 -29 3 -35 -2 -50 -32 l-18 -35 0 43 c0 35 -3 42 -20 42 -11 0 -20 6
-20 14 0 8 9 18 20 21 21 7 22 10 22 58 1 33 11 35 30 5z m252 -39 c9 -14 21
-19 31 -15 26 10 35 -2 23 -29 -9 -19 -7 -29 5 -49 13 -20 14 -25 3 -29 -8 -3
-24 -3 -35 0 -16 4 -24 -1 -34 -26 -15 -35 -30 -31 -21 6 5 20 1 25 -27 35
l-33 11 31 26 c25 21 31 33 29 59 -3 37 7 41 28 11z m673 -33 c4 -7 21 -20 36
-28 27 -13 28 -16 13 -31 -9 -9 -13 -23 -10 -34 5 -14 4 -15 -4 -3 -6 8 -25
14 -46 13 -25 -1 -33 3 -29 13 2 7 -7 24 -22 38 l-27 25 26 -5 c18 -3 28 1 32
11 8 19 20 19 31 1z m-1372 -56 c3 -11 13 -21 21 -21 8 -1 19 -3 24 -4 6 -1
13 -3 16 -4 4 0 1 -8 -6 -16 -7 -8 -10 -21 -7 -29 8 -20 -3 -28 -20 -15 -7 7
-27 9 -44 5 -28 -5 -31 -4 -26 14 3 13 -1 24 -14 30 -25 14 -25 30 0 23 13 -3
21 2 26 16 8 27 22 27 30 1z m-406 -61 c11 0 12 -2 3 -6 -6 -2 -10 -9 -6 -14
7 -13 1 -11 -32 6 -16 8 -36 15 -45 15 -10 0 -19 10 -21 25 -7 35 21 37 56 3
17 -15 37 -28 45 -29z m1346 51 c4 -6 15 -8 26 -5 17 6 19 3 13 -19 -4 -17 0
-35 10 -51 16 -25 16 -25 -14 -25 -23 0 -33 -6 -40 -25 -12 -32 -22 -32 -14 0
5 22 2 27 -26 37 l-33 11 26 19 c17 12 27 29 27 44 0 25 14 32 25 14z m-1165
-45 c0 -7 17 -23 38 -35 21 -13 31 -25 24 -27 -6 -3 -9 -10 -5 -16 4 -6 -7 -1
-24 11 -17 12 -38 22 -47 22 -9 0 -20 8 -23 18 -4 9 -14 23 -22 30 -14 11 -13
12 6 7 12 -3 24 -1 28 5 8 13 25 3 25 -15z m512 -94 c9 -15 19 -18 42 -14 l31
6 -23 -26 c-20 -21 -22 -28 -12 -47 15 -28 8 -35 -19 -18 -17 10 -25 10 -41 0
-29 -18 -38 -15 -33 12 4 18 0 26 -16 31 -29 9 -26 25 4 25 14 0 26 5 26 10 1
6 3 15 4 20 1 6 3 12 4 15 3 12 22 4 33 -14z m277 -124 c11 3 21 10 21 15 0 5
5 6 11 3 7 -5 5 -15 -5 -31 -21 -31 -20 -47 4 -69 25 -23 20 -28 -13 -16 -22
9 -31 6 -57 -15 l-30 -26 0 31 c0 23 -7 34 -27 44 l-26 14 29 14 c16 8 30 23
30 34 3 39 5 40 23 18 12 -15 25 -20 40 -16z m-441 -49 c34 -15 35 -17 15 -23
-18 -6 -21 -11 -12 -26 12 -24 6 -24 -17 -2 -9 10 -29 18 -43 19 -14 1 -29 3
-33 3 -3 1 -4 10 -1 21 3 12 -1 22 -11 26 -25 10 -19 25 8 18 14 -3 27 -1 32
7 6 10 10 8 16 -7 5 -10 26 -27 46 -36z"/>
<path d="M1010 3564 c-69 -15 -161 -49 -220 -82 -89 -49 -170 -105 -170 -116
-1 -29 46 -296 52 -296 4 0 63 38 132 84 225 152 397 221 546 220 151 0 291
-57 600 -242 189 -114 258 -148 366 -183 195 -63 458 12 686 198 280 227 505
250 823 85 50 -26 92 -50 93 -54 2 -5 7 -8 11 -8 4 0 60 -31 124 -69 236 -142
388 -198 503 -188 119 11 231 74 389 218 163 149 238 184 385 183 152 -2 259
-41 536 -195 289 -160 372 -194 496 -198 l67 -2 -10 28 c-6 15 -29 66 -53 113
-40 80 -45 85 -72 82 -16 -2 -67 -3 -114 -4 -112 -2 -182 23 -461 162 -367
183 -472 219 -640 216 -101 -1 -108 -3 -164 -36 -33 -19 -97 -73 -144 -119
-117 -116 -185 -169 -261 -205 -56 -26 -78 -31 -155 -33 -132 -3 -220 30 -530
202 -196 108 -357 179 -451 201 -65 14 -201 13 -269 -3 -92 -21 -163 -60 -337
-183 -210 -150 -316 -198 -444 -204 -166 -7 -299 43 -598 223 -268 162 -395
212 -556 215 -58 1 -130 -3 -160 -10z"/>
<path d="M1355 3085 c-74 -21 -189 -81 -295 -154 -207 -142 -257 -174 -303
-198 l-48 -24 5 -57 c7 -78 35 -254 41 -260 16 -16 173 69 300 162 139 103
317 218 388 251 85 39 149 53 235 49 163 -7 184 -15 637 -234 301 -146 408
-181 555 -184 165 -4 265 45 506 244 179 149 298 214 406 219 127 6 360 -91
680 -285 197 -119 306 -158 448 -159 84 0 102 3 155 28 77 36 137 83 265 207
150 145 254 200 381 200 97 0 251 -67 554 -243 164 -95 315 -164 315 -144 0
19 -49 119 -75 152 -19 25 -35 33 -88 44 -76 15 -269 106 -435 204 -273 162
-425 210 -582 182 -110 -19 -185 -69 -347 -230 -160 -159 -212 -189 -336 -191
-153 -3 -254 37 -577 226 -182 107 -265 148 -347 175 -224 72 -411 14 -683
-213 -100 -84 -211 -153 -295 -184 -47 -18 -81 -22 -155 -22 -175 0 -279 42
-628 255 -141 86 -244 136 -348 169 -88 28 -256 36 -329 15z"/>
<path d="M5796 2648 c-85 -19 -151 -66 -278 -200 -187 -199 -278 -256 -414
-262 -121 -5 -294 61 -549 211 -326 190 -430 233 -583 235 -110 1 -217 -38
-311 -117 -57 -47 -109 -93 -161 -142 -194 -181 -309 -236 -479 -228 -171 8
-283 52 -581 230 -190 113 -272 155 -373 189 -168 56 -319 55 -441 -2 -53 -25
-231 -139 -268 -172 -7 -6 -58 -45 -113 -85 -123 -91 -256 -166 -355 -199
l-75 -25 2 -38 c4 -80 36 -224 52 -232 51 -24 205 6 315 61 59 29 226 134 236
147 3 4 46 36 95 72 303 220 424 273 595 265 138 -7 249 -55 570 -249 324
-196 531 -263 687 -221 117 30 195 84 365 250 126 123 244 215 301 233 20 7
72 13 115 13 144 0 319 -58 582 -195 297 -154 335 -173 385 -189 193 -65 314
-54 435 40 54 43 71 60 167 179 220 274 342 291 713 100 273 -140 291 -149
297 -143 4 3 -5 32 -18 63 -24 56 -26 58 -124 108 -55 28 -143 76 -195 106
-273 162 -466 226 -594 197z"/>
</g>
</svg>
